<svg xmlns="http://www.w3.org/2000/svg" width="137.711" height="137.711" viewBox="0 0 137.711 137.711">
  <g id="Group_73" data-name="Group 73" transform="translate(-87.964 -76.13)">
    <path id="Path_441" data-name="Path 441" d="M156.819,76.13a68.855,68.855,0,1,0,68.855,68.855A68.85,68.85,0,0,0,156.819,76.13Zm5.2,127.073v-4.628a5.2,5.2,0,1,0-10.393,0V203.2A58.54,58.54,0,0,1,98.589,150.02h4.478a5.2,5.2,0,1,0,0-10.393H98.613a58.548,58.548,0,0,1,53.01-52.859v4.3a5.2,5.2,0,0,0,10.393,0v-4.3a58.546,58.546,0,0,1,53.009,52.859h-4.453a5.2,5.2,0,1,0,0,10.393h4.478A58.541,58.541,0,0,1,162.016,203.2Z" transform="translate(0 0)" fill="#5b28f4"/>
    <path id="Path_442" data-name="Path 442" d="M181.124,105.092l-30.782,32.254c-.058,0-.117-.009-.174-.009a5.845,5.845,0,0,0-1.126.111l-25.761-19.466a3.9,3.9,0,0,0-4.689,6.231l25.754,19.459a5.844,5.844,0,0,0,11.667-.488c0-.155-.01-.306-.022-.457l30.776-32.255a3.9,3.9,0,1,0-5.643-5.38Z" transform="translate(6.652 6.349)" fill="#5b28f4"/>
  </g>
</svg>
