<svg xmlns="http://www.w3.org/2000/svg" width="627.382" height="421.531" viewBox="0 0 627.382 421.531">
  <path id="Path_443" data-name="Path 443" d="M7.855,15.5V118.2h43.43c25.823,0,38.588-12.325,38.588-30.078,0-13.058-7.043-22.448-21.862-26.41,9.83-3.081,14.819-9.537,14.819-20.541,0-15.993-11-25.676-33.306-25.676ZM29.863,57.164V33.982h18.78c7.189,0,12.178,3.521,12.178,11.3,0,8.07-5.135,11.884-12.178,11.884Zm0,42.549V71.1H50.551c11.591,0,16.58,5.869,16.58,14.525,0,8.216-4.989,14.085-16.58,14.085ZM136.09,119.668c20.248,0,38.294-12.765,38.294-39.615S156.338,40.438,136.09,40.438,97.8,53.2,97.8,80.053,115.842,119.668,136.09,119.668Zm0-17.753c-11,0-18.193-7.336-18.193-21.862s7.189-21.862,18.193-21.862,18.193,7.336,18.193,21.862S147.094,101.914,136.09,101.914Zm85.245,17.753c20.248,0,38.294-12.765,38.294-39.615s-18.047-39.615-38.294-39.615S183.041,53.2,183.041,80.053,201.088,119.668,221.335,119.668Zm0-17.753c-11,0-18.193-7.336-18.193-21.862s7.189-21.862,18.193-21.862,18.193,7.336,18.193,21.862S232.339,101.914,221.335,101.914ZM348.249,118.2l-34.773-43.87,30.812-32.425H320.666L292.642,73.3V15.5H271.221V118.2h21.421V96.192l7.63-8.07L324.627,118.2Zm17.166-85.245a11.742,11.742,0,0,0,11.738-11.591,11.741,11.741,0,0,0-23.475,0A11.742,11.742,0,0,0,365.416,32.955ZM354.705,118.2h21.421v-76.3H354.705Zm83.338-77.762c-14.966,0-22.889,9.537-24.356,17.46h-.88V41.905H391.385v76.3h21.421V74.918c0-11.151,6.456-16.726,15.993-16.726q14.085,0,14.085,16.726V118.2h21.421V69.782C464.306,50.855,453.449,40.438,438.043,40.438Zm92.581,1.467v8.8c-4.548-6.016-12.471-10.271-22.448-10.271-16.286,0-32.279,11.3-32.279,37.854,0,26.7,15.7,38,32.279,38,9.977,0,17.9-4.255,22.448-10.271v9.39c0,11.3-7.63,16.873-18.34,16.873-8.216,0-15.406-3.081-15.846-9.684H477.511q.22,14.966,11,20.688a52.71,52.71,0,0,0,24.356,5.575c10.271,0,19.367-2.348,27.29-7.189s11.884-13.645,11.884-26.263V41.905Zm-16.58,56.488c-10.417,0-17.9-7.043-17.9-20.1s7.483-20.1,17.9-20.1c9.977,0,17.607,7.189,17.607,20.1C531.651,91.35,524.022,98.393,514.045,98.393Zm81.871,21.275q14.966,0,24.649-6.162c6.309-3.961,9.537-9.977,9.537-18.047,0-12.765-8.51-18.927-22.008-21.862l-14.525-3.081c-5.135-1.174-8.216-3.521-8.216-7.189,0-4.255,4.4-7.043,11.444-7.043,7.63,0,11.738,3.521,12.471,10.564h17.9c-.147-16.58-11-26.41-30.958-26.41-18.927,0-31.105,8.51-31.105,23.182q0,17.387,21.568,22.448L600.757,89c5.135,1.174,7.189,3.228,7.189,6.749,0,5.282-4.4,8.07-11.885,8.07-8.657,0-13.2-3.521-13.939-10.711H562.9C563.05,110.718,574.934,119.668,595.915,119.668ZM23.114,274.092H47.177l13.792-47.831,13.939,47.831H98.823l20.394-76.3H98.969L85.911,253.4h-.587L70.212,197.8H51.725L36.613,253.4h-.587L22.968,197.8H2.72Zm116.937-85.245a11.52,11.52,0,1,0-11.738-11.591A11.742,11.742,0,0,0,140.051,188.847Zm-10.711,85.245h21.421V197.8H129.341Zm74.828-16.139c-6.016,0-8.95-3.228-8.95-9.83V214.23h15.112V197.8H195.219V178.136H173.8V197.8H160.886V214.23H173.8V251.2c0,16.433,9.243,23.916,25.089,23.916,5.282,0,9.243-.147,12.031-.44V257.953Zm64.264-61.623c-14.966,0-22.889,9.537-24.356,17.46h-.88v-42.4H221.775V274.092H243.2V230.809c0-11.151,6.456-16.726,15.993-16.726q14.085,0,14.085,16.726v43.283H294.7V225.674C294.7,206.747,283.839,196.33,268.433,196.33ZM100.583,429.984,57.3,373.056l39.321-45.777H70.8L29.863,375.55V327.279H7.855V429.984H29.863V405.041L43.8,388.755l31.545,41.229Zm10.124,0h21.421V327.279H110.707ZM158.1,344.739a11.52,11.52,0,1,0-11.738-11.591A11.741,11.741,0,0,0,158.1,344.739Zm-10.711,85.245h21.421v-76.3H147.387Zm58.542,0h27l27.73-76.3H238.942l-19.074,55.754h-.734l-19.074-55.754H178.2Zm86.712,0h27l27.73-76.3H325.654L306.58,409.443h-.734l-19.074-55.754H264.911ZM401.509,353.1c-11.738,0-19.221,7.336-22.008,19.074h-.587V353.689H357.493v76.3h21.421V396.238c0-17.166,9.537-24.8,22.448-24.8a50.3,50.3,0,0,1,6.016.44V353.835A25.71,25.71,0,0,0,401.509,353.1Zm19.367,78.349a12.766,12.766,0,1,0-12.912-12.765A12.839,12.839,0,0,0,420.877,431.451Z" transform="translate(-2.72 -9.92)" fill="#fff"/>
</svg>
