<svg xmlns="http://www.w3.org/2000/svg" xmlns:xlink="http://www.w3.org/1999/xlink" width="466.782" height="176.847" viewBox="0 0 466.782 176.847">
  <defs>
    <linearGradient id="linear-gradient" x1="-0.066" y1="0.5" x2="0.991" y2="0.5" gradientUnits="objectBoundingBox">
      <stop offset="0.007" stop-color="#b260aa"/>
      <stop offset="1" stop-color="#5b28dd"/>
    </linearGradient>
    <linearGradient id="linear-gradient-2" y1="0.5" x2="1" y2="0.5" gradientUnits="objectBoundingBox">
      <stop offset="0.004" stop-color="#200f54"/>
      <stop offset="0.998" stop-color="#200f54"/>
    </linearGradient>
  </defs>
  <g id="Group_829" data-name="Group 829" transform="translate(0 0)">
    <path id="Path_1799" data-name="Path 1799" d="M654.114,228.438a11.967,11.967,0,0,0-5.544-1.352H609.33a12,12,0,0,0-11.754,9.565.026.026,0,0,1,0,.015l-.1.591c0,.013,0,.022-.006.034L594.4,254.649l-1.231,7a65.47,65.47,0,0,1-50.883,52.442v0a.725.725,0,0,0,.127,1.439h0a36.135,36.135,0,0,1,33.716,42.69l-2.294,12.977-3.228,18.29a.134.134,0,0,1-.006.034l-.1.59c0,.013,0,.028-.006.04a12.193,12.193,0,0,0-.132,1.787,12,12,0,0,0,11.685,12c.1,0,.206,0,.31,0s.207,0,.31,0H621.4l.206,0a12,12,0,0,0,11.789-9.774l0,0,4.551-25.8,1.827-10.352a36.186,36.186,0,0,0,.565-6.395c0-18.619-18.825-34.574-34-36.031l-.056-.005a.763.763,0,0,1-.137-1.5l.967-.248a65.425,65.425,0,0,0,49.45-51l.446-2.52,3.357-19.018c.013-.065.022-.127.031-.191a11.868,11.868,0,0,0,.172-2.022A12,12,0,0,0,654.114,228.438Z" transform="translate(-541.689 -227.086)" fill="url(#linear-gradient)"/>
    <g id="Group_829-2" data-name="Group 829" transform="translate(125.504 153.782)">
      <path id="Path_1800" data-name="Path 1800" d="M679.585,396.5h7.992a5.522,5.522,0,0,1,3.547,1.067,3.88,3.88,0,0,1,1.336,3.225,4.009,4.009,0,0,1-.611,2.243,3.963,3.963,0,0,1-1.739,1.443v.048a3.582,3.582,0,0,1,2.3,1.515,5.717,5.717,0,0,1,.438,4.848,3.866,3.866,0,0,1-1.082,1.527,5.371,5.371,0,0,1-1.889,1.018,8.85,8.85,0,0,1-2.74.376h-7.554Zm2.879,7.249h4.7a2.492,2.492,0,0,0,1.727-.619,2.267,2.267,0,0,0,.691-1.782,2.321,2.321,0,0,0-.622-1.842,2.681,2.681,0,0,0-1.8-.533h-4.7Zm0,7.588h5.09a2.778,2.778,0,0,0,2.038-.715,2.711,2.711,0,0,0,.725-2.024,2.6,2.6,0,0,0-.725-1.976,2.837,2.837,0,0,0-2.038-.691h-5.09Z" transform="translate(-679.585 -396.092)" fill="#808096"/>
      <path id="Path_1801" data-name="Path 1801" d="M695.553,401.751h2.879l3.109,9.359h.046l3.017-9.359h2.74l-4.629,13.213q-.323.848-.633,1.625a5.926,5.926,0,0,1-.76,1.37,3.319,3.319,0,0,1-1.118.945,3.635,3.635,0,0,1-1.7.352,11.315,11.315,0,0,1-1.819-.146v-2.327c.215.032.421.068.622.109a3.15,3.15,0,0,0,.622.06,2.038,2.038,0,0,0,.76-.121,1.262,1.262,0,0,0,.5-.351,2.22,2.22,0,0,0,.334-.545,5.683,5.683,0,0,0,.254-.728l.3-.969Z" transform="translate(-681.02 -396.563)" fill="#808096"/>
      <path id="Path_1802" data-name="Path 1802" d="M723.578,396.051a7.316,7.316,0,0,1,3.3.727,7.452,7.452,0,0,1,2.476,1.964,8.865,8.865,0,0,1,1.555,2.885,11.6,11.6,0,0,1,0,7.006,8.872,8.872,0,0,1-1.555,2.885,7.3,7.3,0,0,1-2.476,1.951,7.991,7.991,0,0,1-6.609,0,7.294,7.294,0,0,1-2.476-1.951,8.856,8.856,0,0,1-1.555-2.885,11.6,11.6,0,0,1,0-7.006,8.849,8.849,0,0,1,1.555-2.885,7.443,7.443,0,0,1,2.476-1.964A7.316,7.316,0,0,1,723.578,396.051Zm0,2.473a4.419,4.419,0,0,0-2.269.558,4.538,4.538,0,0,0-1.554,1.491,6.907,6.907,0,0,0-.886,2.122,10.356,10.356,0,0,0,0,4.848,6.9,6.9,0,0,0,.886,2.122,4.538,4.538,0,0,0,1.554,1.491,4.893,4.893,0,0,0,4.538,0,4.544,4.544,0,0,0,1.555-1.491,6.923,6.923,0,0,0,.886-2.122,10.36,10.36,0,0,0,0-4.848,6.931,6.931,0,0,0-.886-2.122,4.545,4.545,0,0,0-1.555-1.491A4.42,4.42,0,0,0,723.578,398.524Z" transform="translate(-682.83 -396.051)" fill="#808096"/>
      <path id="Path_1803" data-name="Path 1803" d="M735.49,401.717h2.465v2.425H738a2.848,2.848,0,0,1,.449-.994,4.522,4.522,0,0,1,.806-.885,4.023,4.023,0,0,1,1.048-.643,3.011,3.011,0,0,1,1.175-.243,5.556,5.556,0,0,1,.633.025c.115.016.234.033.357.048v2.667q-.276-.048-.564-.085a4.616,4.616,0,0,0-.564-.036,2.864,2.864,0,0,0-2.28,1.1,4.1,4.1,0,0,0-.691,1.346,6.093,6.093,0,0,0-.254,1.842v5.964H735.49Z" transform="translate(-684.609 -396.53)" fill="#808096"/>
      <path id="Path_1804" data-name="Path 1804" d="M754.307,411.464a1.53,1.53,0,0,0,.127.727.524.524,0,0,0,.5.218h.276a1.625,1.625,0,0,0,.369-.049v1.916c-.092.032-.211.068-.357.108s-.3.077-.45.109a4.445,4.445,0,0,1-.46.073,3.79,3.79,0,0,1-.391.025,2.436,2.436,0,0,1-1.336-.339,1.7,1.7,0,0,1-.691-1.188,4.591,4.591,0,0,1-1.923,1.163,7.21,7.21,0,0,1-2.2.364,5.164,5.164,0,0,1-1.543-.23,3.967,3.967,0,0,1-1.3-.679,3.223,3.223,0,0,1-.9-1.139,3.657,3.657,0,0,1-.334-1.612,3.886,3.886,0,0,1,.4-1.891,3.07,3.07,0,0,1,1.059-1.14,4.66,4.66,0,0,1,1.474-.594,16.321,16.321,0,0,1,1.646-.279,13.139,13.139,0,0,1,1.359-.207,5.965,5.965,0,0,0,1.14-.206,1.713,1.713,0,0,0,.783-.449,1.273,1.273,0,0,0,.288-.908,1.468,1.468,0,0,0-.242-.873,1.645,1.645,0,0,0-.6-.521,2.517,2.517,0,0,0-.795-.243,6.122,6.122,0,0,0-.829-.06,3.17,3.17,0,0,0-1.819.485,1.911,1.911,0,0,0-.806,1.5h-2.626a4.328,4.328,0,0,1,.552-2.012,3.94,3.94,0,0,1,1.232-1.285,4.887,4.887,0,0,1,1.693-.678,9.6,9.6,0,0,1,1.935-.195,7.767,7.767,0,0,1,1.728.195,4.782,4.782,0,0,1,1.532.63,3.418,3.418,0,0,1,1.094,1.128,3.224,3.224,0,0,1,.414,1.685Zm-2.626-3.491a3.076,3.076,0,0,1-1.474.5q-.877.085-1.75.255a5.425,5.425,0,0,0-.807.206,2.382,2.382,0,0,0-.691.364,1.575,1.575,0,0,0-.472.606,2.156,2.156,0,0,0-.173.908,1.2,1.2,0,0,0,.253.776,1.853,1.853,0,0,0,.611.5,2.715,2.715,0,0,0,.784.255,4.638,4.638,0,0,0,.771.073,4.057,4.057,0,0,0,.945-.121,3.06,3.06,0,0,0,.956-.412,2.575,2.575,0,0,0,.748-.74,1.944,1.944,0,0,0,.3-1.1Z" transform="translate(-685.345 -396.53)" fill="#808096"/>
      <path id="Path_1805" data-name="Path 1805" d="M760.385,410.227a2.109,2.109,0,0,0,.875,1.7,3.311,3.311,0,0,0,1.819.485,6.581,6.581,0,0,0,.841-.061,3.513,3.513,0,0,0,.886-.23,1.668,1.668,0,0,0,.679-.5,1.237,1.237,0,0,0,.242-.861,1.253,1.253,0,0,0-.369-.873,2.538,2.538,0,0,0-.886-.545,8.223,8.223,0,0,0-1.232-.351q-.691-.146-1.405-.316a12.477,12.477,0,0,1-1.416-.412,4.436,4.436,0,0,1-1.221-.654,2.975,2.975,0,0,1-.864-1.054,3.514,3.514,0,0,1-.322-1.588,2.957,2.957,0,0,1,.472-1.709,3.7,3.7,0,0,1,1.2-1.116,5.056,5.056,0,0,1,1.613-.594,9.03,9.03,0,0,1,1.693-.17,7.381,7.381,0,0,1,1.762.207,4.679,4.679,0,0,1,1.52.666,3.846,3.846,0,0,1,1.129,1.2,4.311,4.311,0,0,1,.564,1.782h-2.741a1.721,1.721,0,0,0-.864-1.333,3.426,3.426,0,0,0-1.554-.339,5.383,5.383,0,0,0-.656.048,2.913,2.913,0,0,0-.714.182,1.5,1.5,0,0,0-.564.388.957.957,0,0,0-.231.667,1.082,1.082,0,0,0,.334.824,2.611,2.611,0,0,0,.875.521,8.177,8.177,0,0,0,1.232.351q.691.146,1.428.316a13.894,13.894,0,0,1,1.4.412,4.411,4.411,0,0,1,1.232.654,3.139,3.139,0,0,1,.876,1.042,3.291,3.291,0,0,1,.334,1.552,3.5,3.5,0,0,1-.484,1.891,3.915,3.915,0,0,1-1.255,1.261,5.546,5.546,0,0,1-1.716.7,8.261,8.261,0,0,1-1.866.218,7.744,7.744,0,0,1-2.084-.267,4.762,4.762,0,0,1-1.658-.812,3.873,3.873,0,0,1-1.106-1.358,4.515,4.515,0,0,1-.426-1.928Z" transform="translate(-686.61 -396.53)" fill="#808096"/>
      <path id="Path_1806" data-name="Path 1806" d="M779.582,405.912a2.637,2.637,0,0,0-.886-1.758,2.8,2.8,0,0,0-1.831-.593,3.576,3.576,0,0,0-1.082.182,2.546,2.546,0,0,0-1.059.679,3.831,3.831,0,0,0-.806,1.382,6.874,6.874,0,0,0-.322,2.315,7.138,7.138,0,0,0,.172,1.551,4.356,4.356,0,0,0,.553,1.382,3.058,3.058,0,0,0,.979.982,2.678,2.678,0,0,0,1.451.376,2.567,2.567,0,0,0,1.9-.752,3.574,3.574,0,0,0,.933-2.11h2.626a6.188,6.188,0,0,1-1.762,3.746,5.21,5.21,0,0,1-3.7,1.3,5.826,5.826,0,0,1-2.476-.5,5.253,5.253,0,0,1-1.807-1.358,5.844,5.844,0,0,1-1.118-2.049,8.4,8.4,0,0,1-.38-2.569,9.21,9.21,0,0,1,.369-2.643,6.133,6.133,0,0,1,1.1-2.145,5.209,5.209,0,0,1,1.831-1.431,5.925,5.925,0,0,1,2.568-.521,6.843,6.843,0,0,1,1.969.279,5.073,5.073,0,0,1,1.658.836,4.391,4.391,0,0,1,1.187,1.406,5.017,5.017,0,0,1,.552,2.012Z" transform="translate(-687.797 -396.53)" fill="#808096"/>
      <path id="Path_1807" data-name="Path 1807" d="M791.075,414.591a6.2,6.2,0,0,1-2.545-.5,5.43,5.43,0,0,1-1.889-1.37,5.926,5.926,0,0,1-1.174-2.085,8.942,8.942,0,0,1,0-5.31,5.922,5.922,0,0,1,1.174-2.084,5.419,5.419,0,0,1,1.889-1.37,6.753,6.753,0,0,1,5.09,0,5.425,5.425,0,0,1,1.889,1.37,5.939,5.939,0,0,1,1.175,2.084,8.942,8.942,0,0,1,0,5.31,5.943,5.943,0,0,1-1.175,2.085,5.435,5.435,0,0,1-1.889,1.37A6.2,6.2,0,0,1,791.075,414.591Zm0-2.182a2.884,2.884,0,0,0,1.52-.389A3.271,3.271,0,0,0,793.655,411a4.576,4.576,0,0,0,.611-1.419,6.692,6.692,0,0,0,0-3.212,4.4,4.4,0,0,0-.611-1.418,3.324,3.324,0,0,0-1.059-1.007,3.173,3.173,0,0,0-3.04,0,3.305,3.305,0,0,0-1.059,1.007,4.377,4.377,0,0,0-.611,1.418,6.688,6.688,0,0,0,0,3.212A4.553,4.553,0,0,0,788.5,411a3.253,3.253,0,0,0,1.059,1.017A2.884,2.884,0,0,0,791.075,412.41Z" transform="translate(-689.063 -396.53)" fill="#808096"/>
      <path id="Path_1808" data-name="Path 1808" d="M800.677,401.717h2.487v1.746h.069a7.051,7.051,0,0,1,.645-.848,3.557,3.557,0,0,1,.772-.654,3.788,3.788,0,0,1,.978-.424,4.608,4.608,0,0,1,1.267-.158,4.137,4.137,0,0,1,2.015.51,2.838,2.838,0,0,1,1.324,1.575,5.416,5.416,0,0,1,1.544-1.527,4,4,0,0,1,2.188-.558,4.163,4.163,0,0,1,2.936.97,4.268,4.268,0,0,1,1.048,3.248v8.655h-2.626v-7.321q0-.752-.046-1.371a2.93,2.93,0,0,0-.265-1.067,1.552,1.552,0,0,0-.656-.691,2.491,2.491,0,0,0-1.2-.242,2.18,2.18,0,0,0-1.935.873,4.345,4.345,0,0,0-.6,2.473v7.346H808V406.2a3.553,3.553,0,0,0-.45-1.976,1.844,1.844,0,0,0-1.646-.666,2.309,2.309,0,0,0-.979.218,2.44,2.44,0,0,0-.829.63,3.2,3.2,0,0,0-.575,1.018,4.039,4.039,0,0,0-.219,1.382v7.443h-2.626Z" transform="translate(-690.466 -396.53)" fill="#808096"/>
      <path id="Path_1809" data-name="Path 1809" d="M829.228,396.5h11.355v2.619h-8.476v4.533h7.44v2.473h-7.44v7.685h-2.879Z" transform="translate(-693.032 -396.092)" fill="#808096"/>
      <path id="Path_1810" data-name="Path 1810" d="M843.905,396.5h2.626v2.619h-2.626Zm0,4.776h2.626v12.534h-2.626Z" transform="translate(-694.351 -396.092)" fill="#808096"/>
      <path id="Path_1811" data-name="Path 1811" d="M849.927,401.717h2.488v1.843l.046.048a4.526,4.526,0,0,1,1.566-1.636,4.015,4.015,0,0,1,2.141-.594,4.308,4.308,0,0,1,3.086,1.068,4.2,4.2,0,0,1,1.129,3.2v8.606h-2.626v-7.879a3.54,3.54,0,0,0-.6-2.146,2.118,2.118,0,0,0-1.727-.666,2.723,2.723,0,0,0-1.2.255,2.6,2.6,0,0,0-.9.7,3.362,3.362,0,0,0-.576,1.055,3.946,3.946,0,0,0-.207,1.285v7.394h-2.626Z" transform="translate(-694.892 -396.53)" fill="#808096"/>
      <path id="Path_1812" data-name="Path 1812" d="M874.362,411.464a1.53,1.53,0,0,0,.127.727.523.523,0,0,0,.5.218h.276a1.625,1.625,0,0,0,.369-.049v1.916c-.092.032-.211.068-.357.108s-.3.077-.45.109a4.489,4.489,0,0,1-.461.073,3.79,3.79,0,0,1-.391.025,2.436,2.436,0,0,1-1.336-.339,1.7,1.7,0,0,1-.691-1.188,4.593,4.593,0,0,1-1.923,1.163,7.21,7.21,0,0,1-2.2.364,5.165,5.165,0,0,1-1.543-.23,3.968,3.968,0,0,1-1.3-.679,3.213,3.213,0,0,1-.9-1.139,3.656,3.656,0,0,1-.334-1.612,3.887,3.887,0,0,1,.4-1.891,3.07,3.07,0,0,1,1.059-1.14,4.662,4.662,0,0,1,1.474-.594,16.326,16.326,0,0,1,1.646-.279,13.132,13.132,0,0,1,1.359-.207,5.964,5.964,0,0,0,1.141-.206,1.712,1.712,0,0,0,.783-.449,1.272,1.272,0,0,0,.288-.908,1.47,1.47,0,0,0-.241-.873,1.647,1.647,0,0,0-.6-.521,2.516,2.516,0,0,0-.795-.243,6.122,6.122,0,0,0-.829-.06,3.171,3.171,0,0,0-1.819.485,1.909,1.909,0,0,0-.806,1.5h-2.626a4.332,4.332,0,0,1,.552-2.012,3.942,3.942,0,0,1,1.232-1.285,4.89,4.89,0,0,1,1.693-.678,9.6,9.6,0,0,1,1.935-.195,7.771,7.771,0,0,1,1.727.195,4.78,4.78,0,0,1,1.532.63,3.417,3.417,0,0,1,1.094,1.128,3.223,3.223,0,0,1,.414,1.685Zm-2.626-3.491a3.076,3.076,0,0,1-1.474.5q-.876.085-1.75.255a5.4,5.4,0,0,0-.806.206,2.377,2.377,0,0,0-.691.364,1.574,1.574,0,0,0-.472.606,2.158,2.158,0,0,0-.173.908,1.2,1.2,0,0,0,.253.776,1.855,1.855,0,0,0,.611.5,2.716,2.716,0,0,0,.783.255,4.658,4.658,0,0,0,.772.073,4.071,4.071,0,0,0,.945-.121,3.061,3.061,0,0,0,.956-.412,2.576,2.576,0,0,0,.748-.74,1.943,1.943,0,0,0,.3-1.1Z" transform="translate(-696.134 -396.53)" fill="#808096"/>
      <path id="Path_1813" data-name="Path 1813" d="M878.523,401.717h2.487v1.843l.046.048a4.533,4.533,0,0,1,1.566-1.636,4.016,4.016,0,0,1,2.142-.594,4.311,4.311,0,0,1,3.086,1.068,4.2,4.2,0,0,1,1.129,3.2v8.606h-2.626v-7.879a3.535,3.535,0,0,0-.6-2.146,2.118,2.118,0,0,0-1.727-.666,2.723,2.723,0,0,0-1.2.255,2.614,2.614,0,0,0-.9.7,3.357,3.357,0,0,0-.576,1.055,3.968,3.968,0,0,0-.207,1.285v7.394h-2.626Z" transform="translate(-697.462 -396.53)" fill="#808096"/>
      <path id="Path_1814" data-name="Path 1814" d="M901.029,405.912a2.634,2.634,0,0,0-.887-1.758,2.8,2.8,0,0,0-1.83-.593,3.581,3.581,0,0,0-1.083.182,2.55,2.55,0,0,0-1.059.679,3.857,3.857,0,0,0-.806,1.382,6.9,6.9,0,0,0-.322,2.315,7.139,7.139,0,0,0,.173,1.551,4.378,4.378,0,0,0,.552,1.382,3.069,3.069,0,0,0,.979.982,2.677,2.677,0,0,0,1.451.376,2.568,2.568,0,0,0,1.9-.752,3.573,3.573,0,0,0,.933-2.11h2.626a6.193,6.193,0,0,1-1.762,3.746,5.21,5.21,0,0,1-3.7,1.3,5.822,5.822,0,0,1-2.476-.5,5.256,5.256,0,0,1-1.808-1.358,5.829,5.829,0,0,1-1.117-2.049,8.4,8.4,0,0,1-.38-2.569,9.215,9.215,0,0,1,.369-2.643,6.153,6.153,0,0,1,1.106-2.145,5.2,5.2,0,0,1,1.831-1.431,5.924,5.924,0,0,1,2.568-.521,6.845,6.845,0,0,1,1.97.279,5.083,5.083,0,0,1,1.658.836A4.385,4.385,0,0,1,903.1,403.9a5,5,0,0,1,.553,2.012Z" transform="translate(-698.71 -396.53)" fill="#808096"/>
      <path id="Path_1815" data-name="Path 1815" d="M907.194,396.5h2.626v2.619h-2.626Zm0,4.776h2.626v12.534h-2.626Z" transform="translate(-700.038 -396.092)" fill="#808096"/>
      <path id="Path_1816" data-name="Path 1816" d="M923.126,411.464a1.528,1.528,0,0,0,.127.727.523.523,0,0,0,.495.218h.277a1.625,1.625,0,0,0,.369-.049v1.916c-.092.032-.211.068-.357.108s-.3.077-.45.109a4.529,4.529,0,0,1-.46.073,3.792,3.792,0,0,1-.391.025,2.436,2.436,0,0,1-1.336-.339,1.7,1.7,0,0,1-.691-1.188,4.593,4.593,0,0,1-1.923,1.163,7.212,7.212,0,0,1-2.2.364,5.155,5.155,0,0,1-1.543-.23,3.967,3.967,0,0,1-1.3-.679,3.2,3.2,0,0,1-.9-1.139,3.659,3.659,0,0,1-.334-1.612,3.887,3.887,0,0,1,.4-1.891,3.068,3.068,0,0,1,1.059-1.14,4.661,4.661,0,0,1,1.474-.594,16.314,16.314,0,0,1,1.646-.279,13.1,13.1,0,0,1,1.359-.207,5.966,5.966,0,0,0,1.14-.206,1.713,1.713,0,0,0,.783-.449,1.272,1.272,0,0,0,.288-.908,1.468,1.468,0,0,0-.241-.873,1.651,1.651,0,0,0-.6-.521,2.516,2.516,0,0,0-.795-.243,6.123,6.123,0,0,0-.829-.06,3.175,3.175,0,0,0-1.82.485,1.91,1.91,0,0,0-.806,1.5h-2.626a4.329,4.329,0,0,1,.552-2.012,3.94,3.94,0,0,1,1.232-1.285,4.888,4.888,0,0,1,1.693-.678,9.6,9.6,0,0,1,1.935-.195,7.769,7.769,0,0,1,1.727.195,4.781,4.781,0,0,1,1.532.63,3.419,3.419,0,0,1,1.094,1.128,3.224,3.224,0,0,1,.414,1.685Zm-2.626-3.491a3.076,3.076,0,0,1-1.474.5q-.876.085-1.751.255a5.407,5.407,0,0,0-.805.206,2.4,2.4,0,0,0-.692.364,1.582,1.582,0,0,0-.471.606,2.155,2.155,0,0,0-.173.908,1.2,1.2,0,0,0,.253.776,1.853,1.853,0,0,0,.611.5,2.718,2.718,0,0,0,.783.255,4.656,4.656,0,0,0,.772.073,4.07,4.07,0,0,0,.945-.121,3.069,3.069,0,0,0,.956-.412,2.575,2.575,0,0,0,.748-.74,1.944,1.944,0,0,0,.3-1.1Z" transform="translate(-700.516 -396.53)" fill="#808096"/>
      <path id="Path_1817" data-name="Path 1817" d="M927.363,396.5h2.625v17.31h-2.625Z" transform="translate(-701.851 -396.092)" fill="#808096"/>
      <path id="Path_1818" data-name="Path 1818" d="M939.844,396.5h2.879v6.885h7.485V396.5h2.88v17.31h-2.88v-7.806h-7.485v7.806h-2.879Z" transform="translate(-702.972 -396.092)" fill="#808096"/>
      <path id="Path_1819" data-name="Path 1819" d="M963.189,414.591a6.2,6.2,0,0,1-2.546-.5,5.433,5.433,0,0,1-1.889-1.37,5.924,5.924,0,0,1-1.174-2.085,8.942,8.942,0,0,1,0-5.31,5.92,5.92,0,0,1,1.174-2.084,5.422,5.422,0,0,1,1.889-1.37,6.755,6.755,0,0,1,5.09,0,5.424,5.424,0,0,1,1.889,1.37,5.937,5.937,0,0,1,1.175,2.084,8.96,8.96,0,0,1,0,5.31,5.941,5.941,0,0,1-1.175,2.085,5.434,5.434,0,0,1-1.889,1.37A6.206,6.206,0,0,1,963.189,414.591Zm0-2.182a2.887,2.887,0,0,0,1.52-.389A3.271,3.271,0,0,0,965.769,411a4.552,4.552,0,0,0,.61-1.419,6.655,6.655,0,0,0,0-3.212,4.376,4.376,0,0,0-.61-1.418,3.324,3.324,0,0,0-1.059-1.007,3.175,3.175,0,0,0-3.041,0,3.324,3.324,0,0,0-1.059,1.007,4.394,4.394,0,0,0-.61,1.418,6.688,6.688,0,0,0,0,3.212,4.572,4.572,0,0,0,.61,1.419,3.271,3.271,0,0,0,1.059,1.017A2.888,2.888,0,0,0,963.189,412.41Z" transform="translate(-704.53 -396.53)" fill="#808096"/>
      <path id="Path_1820" data-name="Path 1820" d="M972.867,396.5h2.626v17.31h-2.626Z" transform="translate(-705.94 -396.092)" fill="#808096"/>
      <path id="Path_1821" data-name="Path 1821" d="M990.05,413.814h-2.487v-1.7h-.047a3.2,3.2,0,0,1-1.543,1.565,5.013,5.013,0,0,1-2.143.472,5.443,5.443,0,0,1-2.453-.521,4.924,4.924,0,0,1-1.738-1.418,6.175,6.175,0,0,1-1.037-2.122,9.648,9.648,0,0,1-.346-2.63,8.8,8.8,0,0,1,.438-2.933,5.937,5.937,0,0,1,1.163-2.037,4.5,4.5,0,0,1,1.658-1.176,5.047,5.047,0,0,1,1.9-.376,6.053,6.053,0,0,1,1.129.109,4.78,4.78,0,0,1,1.1.352,4.314,4.314,0,0,1,.979.618,3.368,3.368,0,0,1,.748.885h.046v-6.4h2.626Zm-9.167-6.133a6.429,6.429,0,0,0,.2,1.575,4.423,4.423,0,0,0,.6,1.383,3.084,3.084,0,0,0,1.025.969,2.864,2.864,0,0,0,1.474.364,2.824,2.824,0,0,0,1.508-.389,3.189,3.189,0,0,0,1.037-1.017,4.733,4.733,0,0,0,.6-1.419,6.682,6.682,0,0,0,.2-1.612,5.258,5.258,0,0,0-.886-3.248,3.124,3.124,0,0,0-3.962-.764,3.273,3.273,0,0,0-1.037,1.043,4.446,4.446,0,0,0-.575,1.454A7.923,7.923,0,0,0,980.883,407.68Z" transform="translate(-706.424 -396.092)" fill="#808096"/>
      <path id="Path_1822" data-name="Path 1822" d="M994.427,396.5h2.626v2.619h-2.626Zm0,4.776h2.626v12.534h-2.626Z" transform="translate(-707.877 -396.092)" fill="#808096"/>
      <path id="Path_1823" data-name="Path 1823" d="M1000.45,401.717h2.487v1.843l.047.048a4.518,4.518,0,0,1,1.566-1.636,4.013,4.013,0,0,1,2.141-.594,4.309,4.309,0,0,1,3.086,1.068,4.2,4.2,0,0,1,1.129,3.2v8.606h-2.626v-7.879a3.535,3.535,0,0,0-.6-2.146,2.117,2.117,0,0,0-1.728-.666,2.725,2.725,0,0,0-1.2.255,2.612,2.612,0,0,0-.9.7,3.358,3.358,0,0,0-.575,1.055,3.943,3.943,0,0,0-.208,1.285v7.394h-2.626Z" transform="translate(-708.418 -396.53)" fill="#808096"/>
      <path id="Path_1824" data-name="Path 1824" d="M1025.928,413.6a5.487,5.487,0,0,1-1.509,4.23,6.172,6.172,0,0,1-4.341,1.394,8.664,8.664,0,0,1-1.808-.194,5.217,5.217,0,0,1-1.658-.655,4.083,4.083,0,0,1-1.255-1.211,3.817,3.817,0,0,1-.6-1.843h2.626a2.273,2.273,0,0,0,.391.946,2.058,2.058,0,0,0,.656.57,2.419,2.419,0,0,0,.841.267,7.477,7.477,0,0,0,.967.061,2.972,2.972,0,0,0,2.326-.825,3.452,3.452,0,0,0,.737-2.376v-1.915h-.046a4.118,4.118,0,0,1-1.509,1.625,3.9,3.9,0,0,1-2.061.582,5.207,5.207,0,0,1-2.43-.521,4.672,4.672,0,0,1-1.658-1.43,6.075,6.075,0,0,1-.956-2.1,10.363,10.363,0,0,1-.3-2.546,7.748,7.748,0,0,1,.369-2.4,6.2,6.2,0,0,1,1.059-2,5.12,5.12,0,0,1,1.693-1.37,4.93,4.93,0,0,1,2.268-.51,4.385,4.385,0,0,1,2.073.5,3.3,3.3,0,0,1,1.451,1.564h.046v-1.722h2.626Zm-5.828-1.527a2.782,2.782,0,0,0,1.485-.376,3,3,0,0,0,.991-.994,4.522,4.522,0,0,0,.552-1.406,7.422,7.422,0,0,0,.173-1.588,6.5,6.5,0,0,0-.185-1.552,4.273,4.273,0,0,0-.564-1.333,2.779,2.779,0,0,0-.99-.921,2.962,2.962,0,0,0-1.463-.339,2.653,2.653,0,0,0-1.474.388,3.02,3.02,0,0,0-.968,1.007,4.464,4.464,0,0,0-.53,1.406,7.712,7.712,0,0,0-.161,1.564,6.243,6.243,0,0,0,.184,1.515,4.3,4.3,0,0,0,.564,1.321,3.077,3.077,0,0,0,.968.946A2.633,2.633,0,0,0,1020.1,412.07Z" transform="translate(-709.667 -396.53)" fill="#808096"/>
    </g>
    <g id="Group_830" data-name="Group 830" transform="translate(125.504 38.576)">
      <path id="Path_1825" data-name="Path 1825" d="M1035.478,296.027a18.355,18.355,0,0,0-21.535,14.494c-.063.323-.116.644-.162.966l2.193-14.84H997.349l-10.595,71.683h18.626l5.9-39.906c.035-.218.07-.437.113-.656A18.036,18.036,0,0,1,1038.742,316l9.723-16.338A125.252,125.252,0,0,0,1035.478,296.027Z" transform="translate(-707.188 -271.826)" fill="url(#linear-gradient-2)"/>
      <path id="Path_1826" data-name="Path 1826" d="M749.131,285.916l2.437-16.445H732.943L730.46,286.21a28.462,28.462,0,0,1-23.945,23.874l6.035-40.613H693.924l-14.339,96.5h18.626l6.279-42.262a15.547,15.547,0,0,1,17.787,17.562l-3.673,24.7h18.626s.219-1.474.7-4.718l2.692-18.118a27.675,27.675,0,0,0-12.377-27.568A39.128,39.128,0,0,0,749.131,285.916Z" transform="translate(-679.585 -269.471)" fill="url(#linear-gradient-2)"/>
      <path id="Path_1827" data-name="Path 1827" d="M796.656,368.424h18.626l10.692-71.682H807.348Z" transform="translate(-690.105 -271.922)" fill="url(#linear-gradient-2)"/>
      <path id="Path_1828" data-name="Path 1828" d="M861.5,350.807l-6.922-54.065H836.095l9.81,71.682h25.063l31.745-71.682H882.786Z" transform="translate(-693.649 -271.922)" fill="url(#linear-gradient-2)"/>
      <path id="Path_1829" data-name="Path 1829" d="M963.855,296.742l-21.285,54.065-6.922-54.065H917.164l9.81,71.682h25.063l31.745-71.682Z" transform="translate(-700.934 -271.922)" fill="url(#linear-gradient-2)"/>
      <path id="Path_1830" data-name="Path 1830" d="M814.752,272.5c-4.445,3.692-5.151,9.232-2.147,12.849s8.578,3.939,13.024.247,5.151-9.231,2.148-12.848S819.2,268.812,814.752,272.5Z" transform="translate(-691.374 -269.508)" fill="url(#linear-gradient-2)"/>
      <path id="Path_1831" data-name="Path 1831" d="M783.816,352.2a8.457,8.457,0,0,1-8.457-8.457,8.531,8.531,0,0,1,.073-1.118l.424-2.867,3.815-25.661,6.619-44.546H767.664l-9.984,67.2-1.325,8.908a18.844,18.844,0,0,0-.118,2.1,18.594,18.594,0,0,0,18.594,18.594s1.264-.053,3.716-.34l7.7-1.2,1.873-12.608H784.2Z" transform="translate(-686.473 -269.479)" fill="url(#linear-gradient-2)"/>
    </g>
  </g>
</svg>
