<svg xmlns="http://www.w3.org/2000/svg" xmlns:xlink="http://www.w3.org/1999/xlink" width="157.553" height="60" viewBox="0 0 157.553 60">
    <defs>
      <clipPath id="clip-path">
        <path id="Path_7" data-name="Path 7" d="M1272.109,499.18q-.025.132-.045.263l.735-4.97h-6.319l-3.595,24.32h6.319l2-13.539c.012-.074.024-.148.039-.223a6.119,6.119,0,0,1,9.279-3.992l3.3-5.543a42.5,42.5,0,0,0-4.406-1.234,6.221,6.221,0,0,0-7.306,4.918" transform="translate(-1262.884 -494.146)" fill="#fff"/>
      </clipPath>
      <clipPath id="clip-path-2">
        <path id="Path_8" data-name="Path 8" d="M787.765,452.057l-.842,5.679a9.656,9.656,0,0,1-8.124,8.1l2.047-13.779h-6.319L769.662,484.8h6.319l2.131-14.339a5.274,5.274,0,0,1,6.034,5.958L782.9,484.8h6.32l.238-1.6.913-6.147a9.389,9.389,0,0,0-4.2-9.353,13.276,13.276,0,0,0,7.086-10.061l.827-5.58Z" transform="translate(-769.662 -452.057)" fill="#fff"/>
      </clipPath>
      <clipPath id="clip-path-3">
        <path id="Path_9" data-name="Path 9" d="M961.272,495.847l-3.628,24.32h6.319l3.628-24.32Z" transform="translate(-957.644 -495.847)" fill="#fff"/>
      </clipPath>
      <clipPath id="clip-path-4">
        <path id="Path_10" data-name="Path 10" d="M1036.812,495.847l-7.222,18.343-2.348-18.343h-6.272l3.328,24.32h8.5l10.77-24.32Z" transform="translate(-1020.97 -495.847)" fill="#fff"/>
      </clipPath>
      <clipPath id="clip-path-5">
        <path id="Path_11" data-name="Path 11" d="M1166.983,495.847l-7.221,18.343-2.349-18.343h-6.271l3.328,24.32h8.5l10.77-24.32Z" transform="translate(-1151.142 -495.847)" fill="#fff"/>
      </clipPath>
      <clipPath id="clip-path-6">
        <path id="Path_12" data-name="Path 12" d="M981.673,453.608a2.919,2.919,0,1,0,4.419.084,2.711,2.711,0,0,0-2.119-.973,3.622,3.622,0,0,0-2.3.889" transform="translate(-980.326 -452.719)" fill="#fff"/>
      </clipPath>
      <clipPath id="clip-path-7">
        <path id="Path_13" data-name="Path 13" d="M896.619,452.192l-3.387,22.8-.45,3.023a6.412,6.412,0,0,0-.04.714,6.309,6.309,0,0,0,6.309,6.308s.429-.018,1.261-.115l2.613-.407.635-4.278H902.1a2.869,2.869,0,0,1-2.869-2.869,2.886,2.886,0,0,1,.025-.379l.144-.973,1.294-8.706,2.246-15.114Z" transform="translate(-892.742 -452.192)" fill="#fff"/>
      </clipPath>
      <linearGradient id="linear-gradient" x1="0.961" y1="0.5" x2="0" y2="0.5" gradientUnits="objectBoundingBox">
        <stop offset="0" stop-color="#5b28e5"/>
        <stop offset="1" stop-color="#ba60b2"/>
      </linearGradient>
    </defs>
    <g id="Group_43" data-name="Group 43" transform="translate(-549.407 -384)">
      <g id="Group_7" data-name="Group 7" transform="translate(686.023 405.182)">
        <g id="Group_6" data-name="Group 6" transform="translate(0 0)" clip-path="url(#clip-path)">
          <rect id="Rectangle_4" data-name="Rectangle 4" width="20.937" height="24.647" transform="translate(0 0)" fill="#fff"/>
        </g>
      </g>
      <g id="Group_9" data-name="Group 9" transform="translate(591.172 397.088)">
        <g id="Group_8" data-name="Group 8" transform="translate(0)" clip-path="url(#clip-path-2)">
          <rect id="Rectangle_5" data-name="Rectangle 5" width="24.422" height="32.741" transform="translate(0)" fill="#fff"/>
        </g>
      </g>
      <g id="Group_11" data-name="Group 11" transform="translate(627.323 405.509)">
        <g id="Group_10" data-name="Group 10" transform="translate(0 0)" clip-path="url(#clip-path-3)">
          <rect id="Rectangle_6" data-name="Rectangle 6" width="9.947" height="24.32" fill="#fff"/>
        </g>
      </g>
      <g id="Group_13" data-name="Group 13" transform="translate(639.501 405.509)">
        <g id="Group_12" data-name="Group 12" transform="translate(0 0)" clip-path="url(#clip-path-4)">
          <rect id="Rectangle_7" data-name="Rectangle 7" width="22.602" height="24.32" transform="translate(0 0)" fill="#fff"/>
        </g>
      </g>
      <g id="Group_15" data-name="Group 15" transform="translate(664.534 405.509)">
        <g id="Group_14" data-name="Group 14" transform="translate(0 0)" clip-path="url(#clip-path-5)">
          <rect id="Rectangle_8" data-name="Rectangle 8" width="22.602" height="24.32" transform="translate(0 0)" fill="#fff"/>
        </g>
      </g>
      <g id="Group_17" data-name="Group 17" transform="translate(631.685 397.215)">
        <g id="Group_16" data-name="Group 16" clip-path="url(#clip-path-6)">
          <rect id="Rectangle_9" data-name="Rectangle 9" width="7.186" height="6.585" transform="translate(-0.401 0)" fill="#fff"/>
        </g>
      </g>
      <g id="Group_19" data-name="Group 19" transform="translate(614.841 397.114)">
        <g id="Group_18" data-name="Group 18" clip-path="url(#clip-path-7)">
          <rect id="Rectangle_10" data-name="Rectangle 10" width="10.818" height="32.842" transform="translate(0 0)" fill="#fff"/>
        </g>
      </g>
      <g id="Group_21" data-name="Group 21" transform="translate(591.172 436.301)">
        <path id="Path_14" data-name="Path 14" d="M769.662,656.034h2.712a1.873,1.873,0,0,1,1.2.362,1.316,1.316,0,0,1,.453,1.094,1.29,1.29,0,0,1-.8,1.25v.016a1.216,1.216,0,0,1,.781.514,1.941,1.941,0,0,1,.148,1.645,1.31,1.31,0,0,1-.367.518,1.815,1.815,0,0,1-.641.346,3,3,0,0,1-.93.128h-2.563Zm.977,2.459h1.594a.846.846,0,0,0,.586-.21.769.769,0,0,0,.234-.6.788.788,0,0,0-.211-.625.911.911,0,0,0-.609-.181h-1.594Zm0,2.575h1.727a.942.942,0,0,0,.692-.243.921.921,0,0,0,.246-.687.881.881,0,0,0-.246-.67.961.961,0,0,0-.692-.235h-1.727Z" transform="translate(-769.662 -655.894)" fill="#7b7b7b"/>
        <path id="Path_15" data-name="Path 15" d="M795.3,664.46h.977l1.055,3.175h.016l1.024-3.175h.93l-1.57,4.483q-.11.288-.215.551a2,2,0,0,1-.258.465,1.132,1.132,0,0,1-.379.321,1.238,1.238,0,0,1-.578.119,3.864,3.864,0,0,1-.617-.049v-.79c.073.011.143.023.211.037a1.089,1.089,0,0,0,.211.02.7.7,0,0,0,.258-.041.427.427,0,0,0,.168-.119.762.762,0,0,0,.113-.185,1.926,1.926,0,0,0,.086-.247l.1-.329Z" transform="translate(-790.371 -662.7)" fill="#7b7b7b"/>
        <path id="Path_16" data-name="Path 16" d="M830.328,655.307a2.484,2.484,0,0,1,1.121.247,2.526,2.526,0,0,1,.84.666,3.006,3.006,0,0,1,.528.979,3.942,3.942,0,0,1,0,2.377,3.007,3.007,0,0,1-.528.979,2.482,2.482,0,0,1-.84.662,2.714,2.714,0,0,1-2.243,0,2.482,2.482,0,0,1-.84-.662,3.005,3.005,0,0,1-.528-.979,3.943,3.943,0,0,1,0-2.377,3,3,0,0,1,.528-.979,2.527,2.527,0,0,1,.84-.666,2.483,2.483,0,0,1,1.121-.247m0,.839a1.5,1.5,0,0,0-.77.189,1.542,1.542,0,0,0-.527.506,2.342,2.342,0,0,0-.3.72,3.517,3.517,0,0,0,0,1.645,2.335,2.335,0,0,0,.3.72,1.537,1.537,0,0,0,.527.506,1.66,1.66,0,0,0,1.539,0,1.54,1.54,0,0,0,.528-.506,2.342,2.342,0,0,0,.3-.72,3.52,3.52,0,0,0,0-1.645,2.349,2.349,0,0,0-.3-.72,1.545,1.545,0,0,0-.528-.506,1.5,1.5,0,0,0-.77-.189" transform="translate(-816.503 -655.307)" fill="#7b7b7b"/>
        <path id="Path_17" data-name="Path 17" d="M859.43,663.976h.836v.822h.015a.975.975,0,0,1,.153-.337,1.54,1.54,0,0,1,.273-.3,1.365,1.365,0,0,1,.356-.218,1.019,1.019,0,0,1,.4-.082,1.876,1.876,0,0,1,.215.008l.121.016v.9c-.062-.011-.126-.021-.192-.029a1.5,1.5,0,0,0-.191-.012.97.97,0,0,0-.774.374,1.392,1.392,0,0,0-.234.457,2.064,2.064,0,0,0-.086.625v2.023h-.891Z" transform="translate(-842.167 -662.216)" fill="#7b7b7b"/>
        <path id="Path_18" data-name="Path 18" d="M876.2,667.283a.519.519,0,0,0,.043.247.177.177,0,0,0,.168.074h.094a.555.555,0,0,0,.125-.016v.65q-.047.016-.121.037c-.05.014-.1.026-.152.037s-.1.019-.156.025a1.31,1.31,0,0,1-.133.008.823.823,0,0,1-.453-.115.575.575,0,0,1-.234-.4,1.561,1.561,0,0,1-.653.395,2.453,2.453,0,0,1-.746.123,1.751,1.751,0,0,1-.523-.078,1.343,1.343,0,0,1-.442-.23,1.09,1.09,0,0,1-.3-.386,1.244,1.244,0,0,1-.113-.547,1.318,1.318,0,0,1,.137-.642,1.04,1.04,0,0,1,.359-.386,1.572,1.572,0,0,1,.5-.2,5.541,5.541,0,0,1,.559-.095,4.361,4.361,0,0,1,.461-.07,2.094,2.094,0,0,0,.387-.07.582.582,0,0,0,.266-.153.432.432,0,0,0,.1-.308.5.5,0,0,0-.082-.3.56.56,0,0,0-.2-.177.852.852,0,0,0-.27-.082,2.079,2.079,0,0,0-.281-.021,1.078,1.078,0,0,0-.617.164.65.65,0,0,0-.273.51h-.891a1.47,1.47,0,0,1,.188-.683,1.336,1.336,0,0,1,.418-.436,1.664,1.664,0,0,1,.574-.23,3.235,3.235,0,0,1,.656-.066,2.621,2.621,0,0,1,.586.066,1.621,1.621,0,0,1,.519.214,1.157,1.157,0,0,1,.371.383,1.091,1.091,0,0,1,.14.572Zm-.891-1.184a1.045,1.045,0,0,1-.5.169q-.3.029-.594.086a1.823,1.823,0,0,0-.274.07.82.82,0,0,0-.234.123.543.543,0,0,0-.16.206.738.738,0,0,0-.058.309.4.4,0,0,0,.086.263.628.628,0,0,0,.207.169.928.928,0,0,0,.266.086,1.586,1.586,0,0,0,.262.025,1.367,1.367,0,0,0,.32-.041,1.031,1.031,0,0,0,.324-.139.874.874,0,0,0,.254-.251.66.66,0,0,0,.1-.374Z" transform="translate(-852.799 -662.216)" fill="#7b7b7b"/>
        <path id="Path_19" data-name="Path 19" d="M896.078,666.864a.715.715,0,0,0,.3.576,1.123,1.123,0,0,0,.617.164,2.276,2.276,0,0,0,.285-.021,1.2,1.2,0,0,0,.3-.078.564.564,0,0,0,.23-.169.42.42,0,0,0,.082-.292.425.425,0,0,0-.125-.3.865.865,0,0,0-.3-.185,2.792,2.792,0,0,0-.418-.119q-.235-.049-.477-.107a4.338,4.338,0,0,1-.481-.14,1.53,1.53,0,0,1-.414-.222,1.014,1.014,0,0,1-.293-.358,1.192,1.192,0,0,1-.109-.539,1,1,0,0,1,.16-.58,1.255,1.255,0,0,1,.406-.378,1.722,1.722,0,0,1,.547-.2,3.054,3.054,0,0,1,.574-.057,2.507,2.507,0,0,1,.6.07,1.584,1.584,0,0,1,.516.226,1.3,1.3,0,0,1,.383.407,1.462,1.462,0,0,1,.192.6h-.93a.584.584,0,0,0-.293-.452,1.166,1.166,0,0,0-.527-.115,1.827,1.827,0,0,0-.223.016.991.991,0,0,0-.242.062.506.506,0,0,0-.191.132.325.325,0,0,0-.078.226.367.367,0,0,0,.113.28.884.884,0,0,0,.3.177,2.809,2.809,0,0,0,.418.119q.234.049.484.107a4.756,4.756,0,0,1,.477.14,1.514,1.514,0,0,1,.418.222,1.067,1.067,0,0,1,.3.354,1.115,1.115,0,0,1,.114.527,1.189,1.189,0,0,1-.164.641,1.328,1.328,0,0,1-.426.428,1.879,1.879,0,0,1-.582.238,2.8,2.8,0,0,1-.633.074,2.626,2.626,0,0,1-.707-.09,1.612,1.612,0,0,1-.563-.276,1.315,1.315,0,0,1-.375-.461,1.529,1.529,0,0,1-.144-.654Z" transform="translate(-871.048 -662.217)" fill="#7b7b7b"/>
        <path id="Path_20" data-name="Path 20" d="M919.32,665.4a.9.9,0,0,0-.3-.6.949.949,0,0,0-.621-.2,1.226,1.226,0,0,0-.367.062.865.865,0,0,0-.359.23,1.305,1.305,0,0,0-.273.469,2.344,2.344,0,0,0-.109.786,2.411,2.411,0,0,0,.059.526,1.479,1.479,0,0,0,.188.469,1.041,1.041,0,0,0,.332.333.908.908,0,0,0,.492.127.872.872,0,0,0,.645-.255,1.213,1.213,0,0,0,.316-.716h.891a2.1,2.1,0,0,1-.6,1.271,1.767,1.767,0,0,1-1.254.44,1.973,1.973,0,0,1-.84-.169,1.786,1.786,0,0,1-.614-.461,1.981,1.981,0,0,1-.379-.7,2.85,2.85,0,0,1-.129-.872,3.119,3.119,0,0,1,.125-.9,2.088,2.088,0,0,1,.375-.728,1.762,1.762,0,0,1,.621-.485,2,2,0,0,1,.871-.177,2.319,2.319,0,0,1,.668.095,1.717,1.717,0,0,1,.563.284,1.489,1.489,0,0,1,.4.477,1.7,1.7,0,0,1,.187.683Z" transform="translate(-888.179 -662.216)" fill="#7b7b7b"/>
        <path id="Path_21" data-name="Path 21" d="M941.07,668.344a2.1,2.1,0,0,1-.863-.169,1.839,1.839,0,0,1-.641-.465,2.015,2.015,0,0,1-.4-.708,3.033,3.033,0,0,1,0-1.8,2.013,2.013,0,0,1,.4-.707,1.842,1.842,0,0,1,.641-.465,2.294,2.294,0,0,1,1.727,0,1.844,1.844,0,0,1,.641.465,2.019,2.019,0,0,1,.4.707,3.04,3.04,0,0,1,0,1.8,2.02,2.02,0,0,1-.4.708,1.841,1.841,0,0,1-.641.465,2.1,2.1,0,0,1-.863.169m0-.74a.982.982,0,0,0,.516-.132,1.11,1.11,0,0,0,.359-.345,1.547,1.547,0,0,0,.207-.481,2.276,2.276,0,0,0,0-1.09,1.494,1.494,0,0,0-.207-.481,1.133,1.133,0,0,0-.359-.342,1.078,1.078,0,0,0-1.032,0,1.131,1.131,0,0,0-.359.342,1.488,1.488,0,0,0-.207.481,2.266,2.266,0,0,0,0,1.09,1.541,1.541,0,0,0,.207.481,1.107,1.107,0,0,0,.359.345.98.98,0,0,0,.516.132" transform="translate(-906.459 -662.216)" fill="#7b7b7b"/>
        <path id="Path_22" data-name="Path 22" d="M964.1,663.976h.844v.592h.023a2.419,2.419,0,0,1,.219-.288,1.216,1.216,0,0,1,.262-.222,1.291,1.291,0,0,1,.332-.144,1.573,1.573,0,0,1,.43-.053,1.4,1.4,0,0,1,.684.173.963.963,0,0,1,.45.534,1.842,1.842,0,0,1,.523-.518,1.357,1.357,0,0,1,.742-.189,1.413,1.413,0,0,1,1,.329,1.448,1.448,0,0,1,.356,1.1v2.936h-.891v-2.484q0-.255-.016-.465a.993.993,0,0,0-.09-.362.526.526,0,0,0-.223-.234.844.844,0,0,0-.406-.082.739.739,0,0,0-.656.3,1.471,1.471,0,0,0-.2.839v2.492h-.891V665.5a1.206,1.206,0,0,0-.152-.67.626.626,0,0,0-.559-.226.782.782,0,0,0-.332.074.831.831,0,0,0-.281.214,1.075,1.075,0,0,0-.2.345,1.375,1.375,0,0,0-.074.469v2.525H964.1Z" transform="translate(-926.709 -662.216)" fill="#7b7b7b"/>
        <path id="Path_23" data-name="Path 23" d="M1009.944,656.034h3.852v.888h-2.875v1.538h2.524v.839h-2.524v2.607h-.977Z" transform="translate(-963.736 -655.895)" fill="#7b7b7b"/>
        <path id="Path_24" data-name="Path 24" d="M1033.511,656.034h.891v.888h-.891Zm0,1.62h.891v4.252h-.891Z" transform="translate(-982.771 -655.894)" fill="#7b7b7b"/>
        <path id="Path_25" data-name="Path 25" d="M1043.182,663.976h.844v.625l.016.016a1.533,1.533,0,0,1,.531-.555,1.366,1.366,0,0,1,.727-.2,1.462,1.462,0,0,1,1.047.362,1.427,1.427,0,0,1,.383,1.086v2.92h-.891v-2.673a1.2,1.2,0,0,0-.2-.728.719.719,0,0,0-.586-.226.923.923,0,0,0-.406.086.885.885,0,0,0-.3.238,1.136,1.136,0,0,0-.2.358,1.331,1.331,0,0,0-.071.436v2.509h-.891Z" transform="translate(-990.582 -662.216)" fill="#7b7b7b"/>
        <path id="Path_26" data-name="Path 26" d="M1068.969,667.283a.521.521,0,0,0,.043.247.178.178,0,0,0,.168.074h.094a.555.555,0,0,0,.125-.016v.65q-.047.016-.121.037c-.05.014-.1.026-.153.037s-.1.019-.156.025a1.315,1.315,0,0,1-.133.008.822.822,0,0,1-.453-.115.575.575,0,0,1-.235-.4,1.562,1.562,0,0,1-.652.395,2.456,2.456,0,0,1-.746.123,1.751,1.751,0,0,1-.524-.078,1.341,1.341,0,0,1-.441-.23,1.09,1.09,0,0,1-.3-.386,1.245,1.245,0,0,1-.113-.547,1.318,1.318,0,0,1,.137-.642,1.042,1.042,0,0,1,.359-.386,1.575,1.575,0,0,1,.5-.2,5.541,5.541,0,0,1,.559-.095,4.351,4.351,0,0,1,.461-.07,2.1,2.1,0,0,0,.387-.07.58.58,0,0,0,.265-.153.431.431,0,0,0,.1-.308.5.5,0,0,0-.082-.3.561.561,0,0,0-.2-.177.852.852,0,0,0-.27-.082,2.076,2.076,0,0,0-.281-.021,1.078,1.078,0,0,0-.617.164.649.649,0,0,0-.274.51h-.891a1.466,1.466,0,0,1,.187-.683,1.336,1.336,0,0,1,.418-.436,1.658,1.658,0,0,1,.574-.23,3.232,3.232,0,0,1,.656-.066,2.619,2.619,0,0,1,.586.066,1.62,1.62,0,0,1,.52.214,1.155,1.155,0,0,1,.371.383,1.09,1.09,0,0,1,.141.572Zm-.891-1.184a1.044,1.044,0,0,1-.5.169q-.3.029-.594.086a1.824,1.824,0,0,0-.274.07.815.815,0,0,0-.234.123.539.539,0,0,0-.16.206.737.737,0,0,0-.059.309.406.406,0,0,0,.086.263.632.632,0,0,0,.207.169.927.927,0,0,0,.266.086,1.583,1.583,0,0,0,.262.025,1.367,1.367,0,0,0,.32-.041,1.029,1.029,0,0,0,.324-.139.881.881,0,0,0,.254-.251.661.661,0,0,0,.1-.374Z" transform="translate(-1008.501 -662.216)" fill="#7b7b7b"/>
        <path id="Path_27" data-name="Path 27" d="M1089.1,663.976h.844v.625l.016.016a1.535,1.535,0,0,1,.531-.555,1.365,1.365,0,0,1,.727-.2,1.462,1.462,0,0,1,1.047.362,1.427,1.427,0,0,1,.383,1.086v2.92h-.891v-2.673a1.2,1.2,0,0,0-.2-.728.719.719,0,0,0-.586-.226.923.923,0,0,0-.406.086.883.883,0,0,0-.3.238,1.144,1.144,0,0,0-.2.358,1.334,1.334,0,0,0-.071.436v2.509h-.891Z" transform="translate(-1027.667 -662.216)" fill="#7b7b7b"/>
        <path id="Path_28" data-name="Path 28" d="M1114.328,665.4a.893.893,0,0,0-.3-.6.947.947,0,0,0-.621-.2,1.226,1.226,0,0,0-.367.062.866.866,0,0,0-.36.23,1.306,1.306,0,0,0-.273.469,2.339,2.339,0,0,0-.11.786,2.415,2.415,0,0,0,.059.526,1.473,1.473,0,0,0,.188.469,1.039,1.039,0,0,0,.332.333.908.908,0,0,0,.493.127.871.871,0,0,0,.644-.255,1.212,1.212,0,0,0,.317-.716h.891a2.1,2.1,0,0,1-.6,1.271,1.767,1.767,0,0,1-1.254.44,1.975,1.975,0,0,1-.84-.169,1.785,1.785,0,0,1-.614-.461,1.977,1.977,0,0,1-.379-.7,2.846,2.846,0,0,1-.129-.872,3.129,3.129,0,0,1,.125-.9,2.1,2.1,0,0,1,.376-.728,1.763,1.763,0,0,1,.621-.485,2.005,2.005,0,0,1,.871-.177,2.32,2.32,0,0,1,.668.095,1.718,1.718,0,0,1,.563.284,1.489,1.489,0,0,1,.4.477,1.7,1.7,0,0,1,.188.683Z" transform="translate(-1045.685 -662.216)" fill="#7b7b7b"/>
        <path id="Path_29" data-name="Path 29" d="M1135.134,656.034h.891v.888h-.891Zm0,1.62h.891v4.252h-.891Z" transform="translate(-1064.851 -655.894)" fill="#7b7b7b"/>
        <path id="Path_30" data-name="Path 30" d="M1147.27,667.283a.524.524,0,0,0,.042.247.178.178,0,0,0,.168.074h.094a.555.555,0,0,0,.125-.016v.65c-.031.011-.072.023-.121.037s-.1.026-.152.037-.1.019-.156.025a1.324,1.324,0,0,1-.133.008.823.823,0,0,1-.453-.115.576.576,0,0,1-.234-.4,1.562,1.562,0,0,1-.652.395,2.456,2.456,0,0,1-.746.123,1.748,1.748,0,0,1-.523-.078,1.341,1.341,0,0,1-.442-.23,1.1,1.1,0,0,1-.305-.386,1.249,1.249,0,0,1-.113-.547,1.318,1.318,0,0,1,.137-.642,1.041,1.041,0,0,1,.359-.386,1.575,1.575,0,0,1,.5-.2,5.541,5.541,0,0,1,.559-.095,4.365,4.365,0,0,1,.461-.07,2.1,2.1,0,0,0,.387-.07.578.578,0,0,0,.265-.153.429.429,0,0,0,.1-.308.5.5,0,0,0-.082-.3.561.561,0,0,0-.2-.177.853.853,0,0,0-.27-.082,2.084,2.084,0,0,0-.281-.021,1.078,1.078,0,0,0-.617.164.649.649,0,0,0-.274.51h-.891a1.471,1.471,0,0,1,.188-.683,1.337,1.337,0,0,1,.418-.436,1.662,1.662,0,0,1,.574-.23,3.233,3.233,0,0,1,.656-.066,2.617,2.617,0,0,1,.586.066,1.62,1.62,0,0,1,.52.214,1.155,1.155,0,0,1,.371.383,1.091,1.091,0,0,1,.141.572Zm-.891-1.184a1.045,1.045,0,0,1-.5.169q-.3.029-.594.086a1.83,1.83,0,0,0-.274.07.82.82,0,0,0-.234.123.539.539,0,0,0-.16.206.739.739,0,0,0-.059.309.407.407,0,0,0,.086.263.631.631,0,0,0,.207.169.924.924,0,0,0,.266.086,1.586,1.586,0,0,0,.262.025,1.369,1.369,0,0,0,.32-.041,1.031,1.031,0,0,0,.324-.139.878.878,0,0,0,.254-.251.661.661,0,0,0,.1-.374Z" transform="translate(-1071.743 -662.216)" fill="#7b7b7b"/>
        <rect id="Rectangle_11" data-name="Rectangle 11" width="0.891" height="5.873" transform="translate(76.511 0.14)" fill="#7b7b7b"/>
        <path id="Path_31" data-name="Path 31" d="M1187.56,656.034h.977v2.336h2.54v-2.336h.976v5.873h-.976v-2.648h-2.54v2.648h-.977Z" transform="translate(-1107.195 -655.895)" fill="#7b7b7b"/>
        <path id="Path_32" data-name="Path 32" d="M1217.434,668.344a2.1,2.1,0,0,1-.863-.169,1.838,1.838,0,0,1-.641-.465,2.013,2.013,0,0,1-.4-.708,3.04,3.04,0,0,1,0-1.8,2.012,2.012,0,0,1,.4-.707,1.841,1.841,0,0,1,.641-.465,2.293,2.293,0,0,1,1.726,0,1.846,1.846,0,0,1,.641.465,2.016,2.016,0,0,1,.4.707,3.04,3.04,0,0,1,0,1.8,2.017,2.017,0,0,1-.4.708,1.843,1.843,0,0,1-.641.465,2.1,2.1,0,0,1-.863.169m0-.74a.98.98,0,0,0,.516-.132,1.111,1.111,0,0,0,.36-.345,1.557,1.557,0,0,0,.207-.481,2.266,2.266,0,0,0,0-1.09,1.5,1.5,0,0,0-.207-.481,1.134,1.134,0,0,0-.36-.342,1.078,1.078,0,0,0-1.031,0,1.131,1.131,0,0,0-.359.342,1.5,1.5,0,0,0-.207.481,2.266,2.266,0,0,0,0,1.09,1.548,1.548,0,0,0,.207.481,1.108,1.108,0,0,0,.359.345.98.98,0,0,0,.516.132" transform="translate(-1129.676 -662.216)" fill="#7b7b7b"/>
        <rect id="Rectangle_12" data-name="Rectangle 12" width="0.891" height="5.873" transform="translate(90.562 0.14)" fill="#7b7b7b"/>
        <path id="Path_33" data-name="Path 33" d="M1253.241,661.907h-.844v-.576h-.016a1.086,1.086,0,0,1-.523.531,1.7,1.7,0,0,1-.727.16,1.844,1.844,0,0,1-.832-.177,1.671,1.671,0,0,1-.59-.481,2.093,2.093,0,0,1-.352-.72,3.266,3.266,0,0,1-.117-.893,2.989,2.989,0,0,1,.148-1,2.016,2.016,0,0,1,.395-.691,1.527,1.527,0,0,1,.563-.4,1.715,1.715,0,0,1,.645-.128,2.055,2.055,0,0,1,.383.037,1.635,1.635,0,0,1,.375.119,1.476,1.476,0,0,1,.332.21,1.152,1.152,0,0,1,.254.3h.015v-2.172h.891Zm-3.11-2.081a2.162,2.162,0,0,0,.067.534,1.5,1.5,0,0,0,.2.469,1.047,1.047,0,0,0,.348.329.975.975,0,0,0,.5.123.959.959,0,0,0,.512-.132,1.086,1.086,0,0,0,.352-.345,1.608,1.608,0,0,0,.2-.481,2.264,2.264,0,0,0,.066-.547,1.784,1.784,0,0,0-.3-1.1,1.06,1.06,0,0,0-1.344-.259,1.105,1.105,0,0,0-.351.354,1.508,1.508,0,0,0-.2.493,2.7,2.7,0,0,0-.059.563" transform="translate(-1157.014 -655.894)" fill="#7b7b7b"/>
        <path id="Path_34" data-name="Path 34" d="M1275.2,656.034h.891v.888h-.891Zm0,1.62h.891v4.252h-.891Z" transform="translate(-1177.985 -655.894)" fill="#7b7b7b"/>
        <path id="Path_35" data-name="Path 35" d="M1284.875,663.976h.844v.625l.015.016a1.537,1.537,0,0,1,.531-.555,1.364,1.364,0,0,1,.727-.2,1.463,1.463,0,0,1,1.047.362,1.426,1.426,0,0,1,.383,1.086v2.92h-.891v-2.673a1.2,1.2,0,0,0-.2-.728.719.719,0,0,0-.586-.226.924.924,0,0,0-.406.086.887.887,0,0,0-.3.238,1.141,1.141,0,0,0-.2.358,1.337,1.337,0,0,0-.07.436v2.509h-.891Z" transform="translate(-1185.796 -662.216)" fill="#7b7b7b"/>
        <path id="Path_36" data-name="Path 36" d="M1311.114,668.007a1.863,1.863,0,0,1-.512,1.435,2.094,2.094,0,0,1-1.473.473,2.919,2.919,0,0,1-.613-.066,1.768,1.768,0,0,1-.562-.222,1.385,1.385,0,0,1-.426-.411,1.292,1.292,0,0,1-.2-.625h.891a.772.772,0,0,0,.133.321.7.7,0,0,0,.222.193.824.824,0,0,0,.285.091,2.546,2.546,0,0,0,.328.021,1.009,1.009,0,0,0,.789-.28,1.171,1.171,0,0,0,.25-.806v-.65h-.016a1.39,1.39,0,0,1-.512.551,1.319,1.319,0,0,1-.7.2,1.767,1.767,0,0,1-.825-.177,1.587,1.587,0,0,1-.562-.485,2.061,2.061,0,0,1-.325-.711,3.524,3.524,0,0,1-.1-.864,2.63,2.63,0,0,1,.125-.814,2.11,2.11,0,0,1,.359-.679,1.734,1.734,0,0,1,.574-.465,1.673,1.673,0,0,1,.77-.173,1.488,1.488,0,0,1,.7.169,1.119,1.119,0,0,1,.492.531h.016v-.584h.891Zm-1.977-.518a.944.944,0,0,0,.5-.128,1.01,1.01,0,0,0,.336-.337,1.527,1.527,0,0,0,.188-.477,2.511,2.511,0,0,0,.058-.539,2.2,2.2,0,0,0-.063-.527,1.448,1.448,0,0,0-.191-.452.939.939,0,0,0-.336-.312,1.006,1.006,0,0,0-.5-.115.9.9,0,0,0-.5.132,1.034,1.034,0,0,0-.328.341,1.525,1.525,0,0,0-.18.477,2.634,2.634,0,0,0-.055.53,2.111,2.111,0,0,0,.062.514,1.454,1.454,0,0,0,.192.448,1.04,1.04,0,0,0,.328.321.9.9,0,0,0,.481.123" transform="translate(-1203.814 -662.217)" fill="#7b7b7b"/>
      </g>
      <path id="Path_66" data-name="Path 66" d="M571.287,384a4.085,4.085,0,0,0-4,3.245.011.011,0,0,1,0,.005l-.035.2s0,.007,0,.011l-1.043,5.889-.419,2.374a22.255,22.255,0,0,1-17.335,17.792h0a.246.246,0,0,0,.043.488h0a12.252,12.252,0,0,1,11.486,14.483l-.781,4.4-1.1,6.205a.059.059,0,0,1,0,.012l-.036.2s0,.009,0,.013A4.072,4.072,0,0,0,561.992,444h13.477a4.084,4.084,0,0,0,4.016-3.316h0l1.55-8.753.622-3.512a12.238,12.238,0,0,0,.193-2.169c0-6.317-6.413-11.731-11.583-12.224l-.019,0a.259.259,0,0,1-.046-.508l.329-.084a22.239,22.239,0,0,0,16.847-17.3l.152-.855,1.144-6.452c0-.022.008-.043.011-.065a3.993,3.993,0,0,0,.059-.686,4.079,4.079,0,0,0-4.088-4.07Z" transform="translate(1.164)" fill="url(#linear-gradient)"/>
    </g>
  </svg>