<svg xmlns="http://www.w3.org/2000/svg" width="466.787" height="176.848" viewBox="0 0 466.787 176.848">
  <g id="Group_834" data-name="Group 834" transform="translate(0 0)">
    <path id="Path_1832" data-name="Path 1832" d="M654.025,225.966a11.962,11.962,0,0,0-5.543-1.353H609.24a12,12,0,0,0-11.753,9.564.027.027,0,0,1,0,.015l-.1.591c0,.012,0,.021-.005.034l-3.06,17.359-1.231,7A65.471,65.471,0,0,1,542.2,311.615v0a.725.725,0,0,0,.127,1.438h0a36.133,36.133,0,0,1,33.716,42.689l-2.293,12.978-3.228,18.29a.2.2,0,0,1-.006.034l-.1.59c0,.013,0,.027-.006.04a12.2,12.2,0,0,0-.133,1.786,12,12,0,0,0,11.686,12c.1,0,.206,0,.31,0s.206,0,.31,0h38.73l.207,0a12,12,0,0,0,11.788-9.775l0,0,4.552-25.8,1.826-10.351a36.2,36.2,0,0,0,.565-6.395c0-18.619-18.826-34.575-34-36.031l-.056-.005a.763.763,0,0,1-.137-1.5l.968-.248a65.426,65.426,0,0,0,49.45-51l.446-2.521,3.357-19.018c.012-.065.021-.127.03-.191a11.864,11.864,0,0,0,.173-2.023A12,12,0,0,0,654.025,225.966Z" transform="translate(-541.599 -224.613)"/>
    <g id="Group_832" data-name="Group 832" transform="translate(125.506 153.782)">
      <path id="Path_1833" data-name="Path 1833" d="M679.472,394h7.992a5.521,5.521,0,0,1,3.547,1.067,3.878,3.878,0,0,1,1.335,3.224,4.006,4.006,0,0,1-.61,2.243A3.962,3.962,0,0,1,690,401.979v.048a3.581,3.581,0,0,1,2.3,1.515,5.726,5.726,0,0,1,.438,4.849,3.875,3.875,0,0,1-1.083,1.528,5.351,5.351,0,0,1-1.888,1.018,8.857,8.857,0,0,1-2.741.376h-7.555Zm2.878,7.25h4.7a2.5,2.5,0,0,0,1.728-.619,2.265,2.265,0,0,0,.691-1.781,2.324,2.324,0,0,0-.622-1.842,2.685,2.685,0,0,0-1.8-.533h-4.7Zm0,7.588h5.09a2.777,2.777,0,0,0,2.038-.715,2.711,2.711,0,0,0,.726-2.025,2.6,2.6,0,0,0-.726-1.975,2.832,2.832,0,0,0-2.038-.692h-5.09Z" transform="translate(-679.472 -393.59)"/>
      <path id="Path_1834" data-name="Path 1834" d="M695.437,399.249h2.879l3.109,9.358h.046l3.017-9.358h2.741L702.6,412.462q-.324.848-.634,1.624a5.9,5.9,0,0,1-.76,1.37,3.329,3.329,0,0,1-1.117.946,3.65,3.65,0,0,1-1.7.351,11.313,11.313,0,0,1-1.82-.146V414.28c.215.033.421.069.622.11a3.223,3.223,0,0,0,.622.06,2.058,2.058,0,0,0,.76-.121,1.27,1.27,0,0,0,.5-.351,2.219,2.219,0,0,0,.334-.545,5.559,5.559,0,0,0,.253-.728l.3-.969Z" transform="translate(-680.904 -394.06)"/>
      <path id="Path_1835" data-name="Path 1835" d="M723.46,393.549a7.317,7.317,0,0,1,3.3.728,7.436,7.436,0,0,1,2.476,1.964,8.853,8.853,0,0,1,1.555,2.885,11.6,11.6,0,0,1,0,7.007,8.845,8.845,0,0,1-1.555,2.885,7.3,7.3,0,0,1-2.476,1.952,7.99,7.99,0,0,1-6.61,0,7.293,7.293,0,0,1-2.476-1.952,8.827,8.827,0,0,1-1.555-2.885,11.6,11.6,0,0,1,0-7.007,8.835,8.835,0,0,1,1.555-2.885,7.426,7.426,0,0,1,2.476-1.964A7.318,7.318,0,0,1,723.46,393.549Zm0,2.473a4.42,4.42,0,0,0-2.269.558,4.54,4.54,0,0,0-1.555,1.491,6.917,6.917,0,0,0-.887,2.121,10.36,10.36,0,0,0,0,4.849,6.916,6.916,0,0,0,.887,2.121,4.54,4.54,0,0,0,1.555,1.491,4.9,4.9,0,0,0,4.538,0,4.54,4.54,0,0,0,1.555-1.491,6.916,6.916,0,0,0,.887-2.121,10.364,10.364,0,0,0,0-4.849,6.917,6.917,0,0,0-.887-2.121,4.54,4.54,0,0,0-1.555-1.491A4.419,4.419,0,0,0,723.46,396.022Z" transform="translate(-682.711 -393.549)"/>
      <path id="Path_1836" data-name="Path 1836" d="M735.368,399.216h2.464v2.424h.046a2.875,2.875,0,0,1,.449-.994,4.522,4.522,0,0,1,.807-.885,4.024,4.024,0,0,1,1.048-.643,3.013,3.013,0,0,1,1.175-.242,5.331,5.331,0,0,1,.633.025l.358.048v2.667q-.277-.049-.564-.086a4.615,4.615,0,0,0-.564-.036,2.86,2.86,0,0,0-2.28,1.1,4.1,4.1,0,0,0-.691,1.345,6.1,6.1,0,0,0-.253,1.842v5.964h-2.626Z" transform="translate(-684.486 -394.027)"/>
      <path id="Path_1837" data-name="Path 1837" d="M754.184,408.962a1.524,1.524,0,0,0,.127.726.522.522,0,0,0,.5.218h.276a1.619,1.619,0,0,0,.369-.048v1.915q-.138.048-.357.109c-.146.04-.3.076-.449.109s-.308.056-.461.073-.285.024-.391.024a2.429,2.429,0,0,1-1.336-.34,1.7,1.7,0,0,1-.691-1.188,4.6,4.6,0,0,1-1.923,1.164,7.233,7.233,0,0,1-2.2.363,5.13,5.13,0,0,1-1.543-.23,3.951,3.951,0,0,1-1.3-.679,3.207,3.207,0,0,1-.9-1.139,3.658,3.658,0,0,1-.334-1.612,3.887,3.887,0,0,1,.4-1.892,3.091,3.091,0,0,1,1.06-1.14,4.659,4.659,0,0,1,1.475-.594,16.267,16.267,0,0,1,1.647-.279,12.858,12.858,0,0,1,1.358-.207,6.11,6.11,0,0,0,1.141-.206,1.729,1.729,0,0,0,.783-.449,1.275,1.275,0,0,0,.288-.909,1.467,1.467,0,0,0-.241-.872,1.643,1.643,0,0,0-.6-.522,2.491,2.491,0,0,0-.795-.242,5.979,5.979,0,0,0-.829-.061,3.172,3.172,0,0,0-1.82.485,1.91,1.91,0,0,0-.806,1.5H744a4.319,4.319,0,0,1,.553-2.013,3.927,3.927,0,0,1,1.232-1.284,4.891,4.891,0,0,1,1.693-.679,9.585,9.585,0,0,1,1.934-.194,7.76,7.76,0,0,1,1.728.194,4.751,4.751,0,0,1,1.531.631,3.389,3.389,0,0,1,1.094,1.127,3.215,3.215,0,0,1,.415,1.685Zm-2.626-3.492a3.077,3.077,0,0,1-1.474.5q-.875.086-1.751.255a5.422,5.422,0,0,0-.807.206,2.379,2.379,0,0,0-.691.364,1.582,1.582,0,0,0-.472.606,2.157,2.157,0,0,0-.173.908,1.2,1.2,0,0,0,.253.776,1.864,1.864,0,0,0,.611.5,2.716,2.716,0,0,0,.783.254,4.563,4.563,0,0,0,.772.073,4.058,4.058,0,0,0,.944-.121,3.062,3.062,0,0,0,.956-.412,2.561,2.561,0,0,0,.748-.739,1.943,1.943,0,0,0,.3-1.1Z" transform="translate(-685.221 -394.027)"/>
      <path id="Path_1838" data-name="Path 1838" d="M760.259,407.725a2.108,2.108,0,0,0,.875,1.7,3.313,3.313,0,0,0,1.82.484,6.592,6.592,0,0,0,.84-.061,3.47,3.47,0,0,0,.887-.229,1.676,1.676,0,0,0,.679-.5,1.393,1.393,0,0,0-.127-1.734,2.539,2.539,0,0,0-.887-.545,8.215,8.215,0,0,0-1.233-.351q-.691-.146-1.4-.315a12.476,12.476,0,0,1-1.416-.412,4.459,4.459,0,0,1-1.221-.654,2.981,2.981,0,0,1-.864-1.055,3.507,3.507,0,0,1-.322-1.588,2.958,2.958,0,0,1,.472-1.71,3.7,3.7,0,0,1,1.2-1.115,5.05,5.05,0,0,1,1.612-.594,9.025,9.025,0,0,1,1.693-.169,7.422,7.422,0,0,1,1.761.206,4.692,4.692,0,0,1,1.52.667,3.825,3.825,0,0,1,1.129,1.2,4.309,4.309,0,0,1,.564,1.782H765.1a1.723,1.723,0,0,0-.864-1.334,3.442,3.442,0,0,0-1.555-.339,5.386,5.386,0,0,0-.656.048,2.951,2.951,0,0,0-.714.182,1.5,1.5,0,0,0-.564.388.957.957,0,0,0-.23.667,1.079,1.079,0,0,0,.334.824,2.607,2.607,0,0,0,.875.522,8.286,8.286,0,0,0,1.233.351q.691.146,1.428.315a14.457,14.457,0,0,1,1.4.412,4.469,4.469,0,0,1,1.232.655,3.148,3.148,0,0,1,.875,1.042,3.292,3.292,0,0,1,.334,1.552,3.505,3.505,0,0,1-.483,1.891,3.916,3.916,0,0,1-1.255,1.261,5.565,5.565,0,0,1-1.716.7,8.31,8.31,0,0,1-1.866.218,7.7,7.7,0,0,1-2.084-.267,4.745,4.745,0,0,1-1.658-.812,3.865,3.865,0,0,1-1.106-1.358,4.5,4.5,0,0,1-.426-1.927Z" transform="translate(-686.483 -394.027)"/>
      <path id="Path_1839" data-name="Path 1839" d="M779.454,403.41a2.629,2.629,0,0,0-.886-1.758,2.8,2.8,0,0,0-1.831-.594,3.606,3.606,0,0,0-1.083.182,2.545,2.545,0,0,0-1.059.679,3.83,3.83,0,0,0-.807,1.382,6.9,6.9,0,0,0-.322,2.315,7.091,7.091,0,0,0,.173,1.552,4.365,4.365,0,0,0,.553,1.382,3.053,3.053,0,0,0,.979.981,2.671,2.671,0,0,0,1.451.376,2.571,2.571,0,0,0,1.9-.751,3.574,3.574,0,0,0,.932-2.109h2.626a6.185,6.185,0,0,1-1.762,3.745,5.209,5.209,0,0,1-3.7,1.3,5.825,5.825,0,0,1-2.476-.5,5.27,5.27,0,0,1-1.808-1.357,5.838,5.838,0,0,1-1.117-2.049,8.4,8.4,0,0,1-.38-2.57,9.208,9.208,0,0,1,.368-2.643,6.154,6.154,0,0,1,1.106-2.146,5.2,5.2,0,0,1,1.831-1.43,5.91,5.91,0,0,1,2.568-.522,6.845,6.845,0,0,1,1.97.279,5.1,5.1,0,0,1,1.658.837,4.4,4.4,0,0,1,1.187,1.406,5.02,5.02,0,0,1,.553,2.013Z" transform="translate(-687.668 -394.027)"/>
      <path id="Path_1840" data-name="Path 1840" d="M790.945,412.089a6.2,6.2,0,0,1-2.545-.5,5.42,5.42,0,0,1-1.888-1.37,5.91,5.91,0,0,1-1.175-2.085,8.96,8.96,0,0,1,0-5.31,5.917,5.917,0,0,1,1.175-2.085,5.431,5.431,0,0,1,1.888-1.37,6.765,6.765,0,0,1,5.09,0,5.443,5.443,0,0,1,1.889,1.37,5.93,5.93,0,0,1,1.174,2.085,8.942,8.942,0,0,1,0,5.31,5.923,5.923,0,0,1-1.174,2.085,5.432,5.432,0,0,1-1.889,1.37A6.2,6.2,0,0,1,790.945,412.089Zm0-2.182a2.893,2.893,0,0,0,1.52-.388,3.273,3.273,0,0,0,1.06-1.019,4.528,4.528,0,0,0,.61-1.418,6.658,6.658,0,0,0,0-3.212,4.382,4.382,0,0,0-.61-1.417,3.333,3.333,0,0,0-1.06-1.007,3.173,3.173,0,0,0-3.04,0,3.334,3.334,0,0,0-1.06,1.007,4.4,4.4,0,0,0-.61,1.417,6.686,6.686,0,0,0,0,3.212,4.551,4.551,0,0,0,.61,1.418,3.274,3.274,0,0,0,1.06,1.019A2.893,2.893,0,0,0,790.945,409.907Z" transform="translate(-688.932 -394.027)"/>
      <path id="Path_1841" data-name="Path 1841" d="M800.544,399.216h2.488v1.745h.069a7.117,7.117,0,0,1,.645-.848,3.584,3.584,0,0,1,.772-.654,3.819,3.819,0,0,1,.979-.424,4.644,4.644,0,0,1,1.267-.158,4.143,4.143,0,0,1,2.016.509,2.837,2.837,0,0,1,1.324,1.576,5.4,5.4,0,0,1,1.544-1.527,3.989,3.989,0,0,1,2.188-.558,4.162,4.162,0,0,1,2.937.969,4.27,4.27,0,0,1,1.048,3.249v8.655h-2.625v-7.321q0-.751-.046-1.37a2.946,2.946,0,0,0-.265-1.067,1.555,1.555,0,0,0-.657-.691,2.488,2.488,0,0,0-1.2-.242,2.179,2.179,0,0,0-1.935.873,4.344,4.344,0,0,0-.6,2.472v7.346h-2.626V403.7a3.554,3.554,0,0,0-.449-1.976,1.844,1.844,0,0,0-1.647-.666,2.309,2.309,0,0,0-.98.218,2.45,2.45,0,0,0-.828.63,3.186,3.186,0,0,0-.576,1.019,4.062,4.062,0,0,0-.218,1.382v7.443h-2.626Z" transform="translate(-690.332 -394.027)"/>
      <path id="Path_1842" data-name="Path 1842" d="M829.09,394h11.355v2.619h-8.476v4.533h7.439v2.472h-7.439v7.686H829.09Z" transform="translate(-692.893 -393.59)"/>
      <path id="Path_1843" data-name="Path 1843" d="M843.764,394h2.626v2.619h-2.626Zm0,4.776h2.626v12.534h-2.626Z" transform="translate(-694.209 -393.59)"/>
      <path id="Path_1844" data-name="Path 1844" d="M849.786,399.216h2.488v1.842l.045.048a4.525,4.525,0,0,1,1.567-1.636,4.013,4.013,0,0,1,2.142-.594,4.312,4.312,0,0,1,3.086,1.067,4.2,4.2,0,0,1,1.129,3.2v8.607h-2.625v-7.88a3.534,3.534,0,0,0-.6-2.146,2.117,2.117,0,0,0-1.728-.666,2.719,2.719,0,0,0-1.2.255,2.6,2.6,0,0,0-.9.7,3.356,3.356,0,0,0-.576,1.055,3.938,3.938,0,0,0-.207,1.284v7.394h-2.626Z" transform="translate(-694.749 -394.027)"/>
      <path id="Path_1845" data-name="Path 1845" d="M874.219,408.962a1.527,1.527,0,0,0,.126.726.522.522,0,0,0,.5.218h.276a1.618,1.618,0,0,0,.369-.048v1.915q-.138.048-.357.109c-.146.04-.3.076-.449.109s-.308.056-.461.073-.285.024-.391.024a2.429,2.429,0,0,1-1.336-.34,1.7,1.7,0,0,1-.691-1.188,4.6,4.6,0,0,1-1.923,1.164,7.233,7.233,0,0,1-2.2.363,5.13,5.13,0,0,1-1.543-.23,3.951,3.951,0,0,1-1.3-.679,3.21,3.21,0,0,1-.9-1.139,3.658,3.658,0,0,1-.334-1.612,3.887,3.887,0,0,1,.4-1.892,3.089,3.089,0,0,1,1.06-1.14,4.658,4.658,0,0,1,1.475-.594,16.259,16.259,0,0,1,1.647-.279,12.867,12.867,0,0,1,1.358-.207,6.109,6.109,0,0,0,1.141-.206,1.729,1.729,0,0,0,.783-.449,1.275,1.275,0,0,0,.288-.909,1.467,1.467,0,0,0-.241-.872,1.643,1.643,0,0,0-.6-.522,2.49,2.49,0,0,0-.795-.242,5.975,5.975,0,0,0-.829-.061,3.172,3.172,0,0,0-1.82.485,1.91,1.91,0,0,0-.806,1.5h-2.626a4.319,4.319,0,0,1,.554-2.013,3.926,3.926,0,0,1,1.232-1.284,4.892,4.892,0,0,1,1.693-.679,9.586,9.586,0,0,1,1.934-.194,7.76,7.76,0,0,1,1.728.194,4.749,4.749,0,0,1,1.531.631,3.389,3.389,0,0,1,1.094,1.127,3.216,3.216,0,0,1,.415,1.685Zm-2.626-3.492a3.077,3.077,0,0,1-1.474.5q-.875.086-1.75.255a5.419,5.419,0,0,0-.807.206,2.379,2.379,0,0,0-.691.364,1.582,1.582,0,0,0-.471.606,2.155,2.155,0,0,0-.173.908,1.2,1.2,0,0,0,.253.776,1.863,1.863,0,0,0,.611.5,2.715,2.715,0,0,0,.783.254,4.561,4.561,0,0,0,.772.073,4.06,4.06,0,0,0,.944-.121,3.062,3.062,0,0,0,.956-.412,2.561,2.561,0,0,0,.748-.739,1.942,1.942,0,0,0,.3-1.1Z" transform="translate(-695.988 -394.027)"/>
      <path id="Path_1846" data-name="Path 1846" d="M878.377,399.216h2.487v1.842l.046.048a4.523,4.523,0,0,1,1.566-1.636,4.015,4.015,0,0,1,2.142-.594,4.314,4.314,0,0,1,3.087,1.067,4.2,4.2,0,0,1,1.129,3.2v8.607h-2.626v-7.88a3.535,3.535,0,0,0-.6-2.146,2.116,2.116,0,0,0-1.727-.666,2.723,2.723,0,0,0-1.2.255,2.613,2.613,0,0,0-.9.7,3.357,3.357,0,0,0-.575,1.055,3.939,3.939,0,0,0-.208,1.284v7.394h-2.625Z" transform="translate(-697.314 -394.027)"/>
      <path id="Path_1847" data-name="Path 1847" d="M900.881,403.41a2.634,2.634,0,0,0-.886-1.758,2.8,2.8,0,0,0-1.832-.594,3.606,3.606,0,0,0-1.082.182,2.546,2.546,0,0,0-1.06.679,3.845,3.845,0,0,0-.806,1.382,6.872,6.872,0,0,0-.323,2.315,7.144,7.144,0,0,0,.173,1.552,4.385,4.385,0,0,0,.552,1.382,3.064,3.064,0,0,0,.98.981,2.666,2.666,0,0,0,1.451.376,2.569,2.569,0,0,0,1.9-.751,3.575,3.575,0,0,0,.933-2.109h2.625a6.189,6.189,0,0,1-1.761,3.745,5.21,5.21,0,0,1-3.7,1.3,5.821,5.821,0,0,1-2.476-.5,5.251,5.251,0,0,1-1.808-1.357,5.857,5.857,0,0,1-1.118-2.049,8.4,8.4,0,0,1-.38-2.57,9.213,9.213,0,0,1,.369-2.643,6.136,6.136,0,0,1,1.105-2.146,5.2,5.2,0,0,1,1.832-1.43,5.907,5.907,0,0,1,2.568-.522,6.844,6.844,0,0,1,1.969.279,5.1,5.1,0,0,1,1.659.837,4.411,4.411,0,0,1,1.186,1.406,5,5,0,0,1,.552,2.013Z" transform="translate(-698.56 -394.027)"/>
      <path id="Path_1848" data-name="Path 1848" d="M907.043,394h2.625v2.619h-2.625Zm0,4.776h2.625v12.534h-2.625Z" transform="translate(-699.885 -393.59)"/>
      <path id="Path_1849" data-name="Path 1849" d="M922.974,408.962a1.525,1.525,0,0,0,.127.726.522.522,0,0,0,.5.218h.276a1.617,1.617,0,0,0,.369-.048v1.915c-.092.032-.211.068-.357.109s-.3.076-.45.109-.307.056-.46.073-.284.024-.391.024a2.428,2.428,0,0,1-1.336-.34,1.7,1.7,0,0,1-.691-1.188,4.6,4.6,0,0,1-1.923,1.164,7.237,7.237,0,0,1-2.2.363,5.13,5.13,0,0,1-1.543-.23,3.94,3.94,0,0,1-1.3-.679,3.211,3.211,0,0,1-.9-1.139,3.67,3.67,0,0,1-.334-1.612,3.887,3.887,0,0,1,.4-1.892,3.082,3.082,0,0,1,1.059-1.14,4.654,4.654,0,0,1,1.474-.594,16.364,16.364,0,0,1,1.647-.279,12.918,12.918,0,0,1,1.359-.207,6.107,6.107,0,0,0,1.141-.206,1.729,1.729,0,0,0,.783-.449,1.275,1.275,0,0,0,.287-.909,1.461,1.461,0,0,0-.242-.872,1.641,1.641,0,0,0-.6-.522,2.491,2.491,0,0,0-.795-.242,5.983,5.983,0,0,0-.829-.061,3.172,3.172,0,0,0-1.82.485,1.914,1.914,0,0,0-.807,1.5h-2.625a4.332,4.332,0,0,1,.553-2.013,3.94,3.94,0,0,1,1.233-1.284,4.891,4.891,0,0,1,1.693-.679,9.584,9.584,0,0,1,1.934-.194,7.766,7.766,0,0,1,1.728.194,4.768,4.768,0,0,1,1.531.631,3.408,3.408,0,0,1,1.094,1.127,3.216,3.216,0,0,1,.414,1.685Zm-2.625-3.492a3.076,3.076,0,0,1-1.474.5q-.877.086-1.75.255a5.414,5.414,0,0,0-.807.206,2.378,2.378,0,0,0-.691.364,1.591,1.591,0,0,0-.472.606,2.171,2.171,0,0,0-.172.908,1.2,1.2,0,0,0,.253.776,1.855,1.855,0,0,0,.611.5,2.708,2.708,0,0,0,.783.254,4.551,4.551,0,0,0,.771.073,4.059,4.059,0,0,0,.945-.121,3.063,3.063,0,0,0,.956-.412,2.562,2.562,0,0,0,.748-.739,1.944,1.944,0,0,0,.3-1.1Z" transform="translate(-700.362 -394.027)"/>
      <path id="Path_1850" data-name="Path 1850" d="M927.208,394h2.626v17.31h-2.626Z" transform="translate(-701.694 -393.59)"/>
      <path id="Path_1851" data-name="Path 1851" d="M939.688,394h2.878v6.885h7.485V394h2.879v17.31h-2.879v-7.807h-7.485v7.807h-2.878Z" transform="translate(-702.813 -393.59)"/>
      <path id="Path_1852" data-name="Path 1852" d="M963.03,412.089a6.2,6.2,0,0,1-2.544-.5,5.414,5.414,0,0,1-1.889-1.37,5.923,5.923,0,0,1-1.175-2.085,8.96,8.96,0,0,1,0-5.31,5.93,5.93,0,0,1,1.175-2.085,5.425,5.425,0,0,1,1.889-1.37,6.763,6.763,0,0,1,5.089,0,5.432,5.432,0,0,1,1.889,1.37,5.929,5.929,0,0,1,1.174,2.085,8.939,8.939,0,0,1,0,5.31,5.922,5.922,0,0,1-1.174,2.085,5.421,5.421,0,0,1-1.889,1.37A6.2,6.2,0,0,1,963.03,412.089Zm0-2.182a2.893,2.893,0,0,0,1.52-.388,3.263,3.263,0,0,0,1.06-1.019,4.547,4.547,0,0,0,.611-1.418,6.69,6.69,0,0,0,0-3.212,4.4,4.4,0,0,0-.611-1.417,3.323,3.323,0,0,0-1.06-1.007,3.172,3.172,0,0,0-3.039,0,3.313,3.313,0,0,0-1.06,1.007,4.387,4.387,0,0,0-.611,1.417,6.694,6.694,0,0,0,0,3.212,4.533,4.533,0,0,0,.611,1.418,3.254,3.254,0,0,0,1.06,1.019A2.889,2.889,0,0,0,963.03,409.907Z" transform="translate(-704.368 -394.027)"/>
      <path id="Path_1853" data-name="Path 1853" d="M972.7,394h2.626v17.31H972.7Z" transform="translate(-705.775 -393.59)"/>
      <path id="Path_1854" data-name="Path 1854" d="M989.887,411.312H987.4v-1.7h-.046a3.2,3.2,0,0,1-1.543,1.564,5.014,5.014,0,0,1-2.143.472,5.437,5.437,0,0,1-2.452-.522,4.92,4.92,0,0,1-1.739-1.417,6.189,6.189,0,0,1-1.037-2.122,9.647,9.647,0,0,1-.345-2.631,8.817,8.817,0,0,1,.437-2.933,5.924,5.924,0,0,1,1.163-2.036,4.488,4.488,0,0,1,1.659-1.176,5.047,5.047,0,0,1,1.9-.376,6.051,6.051,0,0,1,1.129.109,4.827,4.827,0,0,1,1.105.351,4.348,4.348,0,0,1,.979.618,3.414,3.414,0,0,1,.748.885h.046V394h2.625Zm-9.167-6.134a6.385,6.385,0,0,0,.2,1.576,4.41,4.41,0,0,0,.6,1.382,3.09,3.09,0,0,0,1.025.97,2.869,2.869,0,0,0,1.474.363,2.832,2.832,0,0,0,1.508-.388,3.2,3.2,0,0,0,1.037-1.019,4.731,4.731,0,0,0,.6-1.418,6.672,6.672,0,0,0,.2-1.612,5.255,5.255,0,0,0-.887-3.248,3.121,3.121,0,0,0-3.962-.764,3.258,3.258,0,0,0-1.037,1.042,4.443,4.443,0,0,0-.575,1.455A7.932,7.932,0,0,0,980.72,405.179Z" transform="translate(-706.259 -393.59)"/>
      <path id="Path_1855" data-name="Path 1855" d="M994.262,394h2.625v2.619h-2.625Zm0,4.776h2.625v12.534h-2.625Z" transform="translate(-707.709 -393.59)"/>
      <path id="Path_1856" data-name="Path 1856" d="M1000.284,399.216h2.487v1.842l.046.048a4.522,4.522,0,0,1,1.566-1.636,4.015,4.015,0,0,1,2.142-.594,4.314,4.314,0,0,1,3.087,1.067,4.2,4.2,0,0,1,1.129,3.2v8.607h-2.626v-7.88a3.535,3.535,0,0,0-.6-2.146,2.116,2.116,0,0,0-1.727-.666,2.723,2.723,0,0,0-1.2.255,2.613,2.613,0,0,0-.9.7,3.357,3.357,0,0,0-.575,1.055,3.935,3.935,0,0,0-.208,1.284v7.394h-2.625Z" transform="translate(-708.249 -394.027)"/>
      <path id="Path_1857" data-name="Path 1857" d="M1025.759,411.095a5.49,5.49,0,0,1-1.509,4.231,6.169,6.169,0,0,1-4.341,1.394,8.651,8.651,0,0,1-1.808-.194,5.211,5.211,0,0,1-1.659-.655,4.1,4.1,0,0,1-1.255-1.213,3.817,3.817,0,0,1-.6-1.842h2.626a2.278,2.278,0,0,0,.391.946,2.048,2.048,0,0,0,.656.57,2.414,2.414,0,0,0,.841.267,7.461,7.461,0,0,0,.967.06,2.975,2.975,0,0,0,2.327-.824,3.456,3.456,0,0,0,.736-2.376v-1.915h-.046a4.115,4.115,0,0,1-1.509,1.624,3.892,3.892,0,0,1-2.061.582,5.2,5.2,0,0,1-2.43-.521,4.686,4.686,0,0,1-1.659-1.431,6.063,6.063,0,0,1-.956-2.1,10.4,10.4,0,0,1-.3-2.546,7.755,7.755,0,0,1,.369-2.4,6.211,6.211,0,0,1,1.06-2,5.126,5.126,0,0,1,1.692-1.37,4.939,4.939,0,0,1,2.269-.509,4.384,4.384,0,0,1,2.073.5,3.3,3.3,0,0,1,1.451,1.564h.046v-1.721h2.626Zm-5.828-1.527a2.783,2.783,0,0,0,1.486-.375,3,3,0,0,0,.99-.994,4.51,4.51,0,0,0,.553-1.406,7.432,7.432,0,0,0,.172-1.588,6.481,6.481,0,0,0-.184-1.551,4.293,4.293,0,0,0-.564-1.334,2.78,2.78,0,0,0-.99-.921,2.974,2.974,0,0,0-1.463-.339,2.664,2.664,0,0,0-1.474.388,3.036,3.036,0,0,0-.968,1.007,4.436,4.436,0,0,0-.529,1.406,7.722,7.722,0,0,0-.162,1.564,6.247,6.247,0,0,0,.185,1.516,4.278,4.278,0,0,0,.564,1.321,3.072,3.072,0,0,0,.967.946A2.641,2.641,0,0,0,1019.932,409.567Z" transform="translate(-709.495 -394.027)"/>
    </g>
    <g id="Group_833" data-name="Group 833" transform="translate(125.506 38.576)">
      <path id="Path_1858" data-name="Path 1858" d="M1035.315,293.542a18.355,18.355,0,0,0-21.535,14.495q-.094.483-.162.966l2.194-14.841H997.185L986.59,365.844h18.627l5.9-39.9c.034-.219.071-.438.114-.657a18.036,18.036,0,0,1,27.35-11.766l9.724-16.338A125.37,125.37,0,0,0,1035.315,293.542Z" transform="translate(-707.021 -269.341)"/>
      <path id="Path_1859" data-name="Path 1859" d="M749.02,283.436l2.436-16.446H732.83l-2.482,16.74A28.464,28.464,0,0,1,706.4,307.6l6.035-40.614H693.811l-14.339,96.5H698.1l6.28-42.263a15.7,15.7,0,0,1,2.4-.191,15.553,15.553,0,0,1,15.385,17.754l-3.673,24.7h18.626s.219-1.474.7-4.717l2.693-18.119a27.687,27.687,0,0,0-12.376-27.568A39.134,39.134,0,0,0,749.02,283.436Z" transform="translate(-679.472 -266.99)"/>
      <path id="Path_1860" data-name="Path 1860" d="M796.524,365.94H815.15l10.692-71.683H807.216Z" transform="translate(-689.972 -269.436)"/>
      <path id="Path_1861" data-name="Path 1861" d="M861.363,348.323l-6.922-54.065H835.956l9.81,71.683h25.063l31.745-71.683H882.648Z" transform="translate(-693.509 -269.436)"/>
      <path id="Path_1862" data-name="Path 1862" d="M963.7,294.257l-21.285,54.065L935.5,294.257H917.011l9.81,71.683h25.063l31.745-71.683Z" transform="translate(-700.779 -269.436)"/>
      <path id="Path_1863" data-name="Path 1863" d="M814.618,270.023c-4.446,3.692-5.151,9.232-2.148,12.849s8.579,3.94,13.025.248,5.151-9.231,2.148-12.848S819.063,266.331,814.618,270.023Z" transform="translate(-691.238 -267.027)"/>
      <path id="Path_1864" data-name="Path 1864" d="M783.69,349.724a8.455,8.455,0,0,1-8.457-8.457,8.554,8.554,0,0,1,.073-1.118l.424-2.867,3.815-25.661,6.619-44.547H767.539l-9.985,67.2-1.324,8.908a18.6,18.6,0,0,0,18.475,20.7s1.265-.052,3.717-.34l7.7-1.2L788,349.728h-3.918Z" transform="translate(-686.346 -266.997)"/>
    </g>
  </g>
</svg>
