<svg xmlns="http://www.w3.org/2000/svg" xmlns:xlink="http://www.w3.org/1999/xlink" width="102.584" height="53.451" viewBox="0 0 102.584 53.451">
  <defs>
    <linearGradient id="linear-gradient" x1="1" y1="0.143" x2="0.027" y2="0.916" gradientUnits="objectBoundingBox">
      <stop offset="0" stop-color="#00cfa1"/>
      <stop offset="1" stop-color="#caffac"/>
    </linearGradient>
  </defs>
  <path id="Path_429" data-name="Path 429" d="M9498.5,2436.857c-4.322-.172-5.352-2.059-8.783.858s-6.626,7.207-9.147,8.237-5.438,0-8.527,1.373-3.432,2.231-13.041,5.148-16.13,4.8-19.905,6.692-8.162,2.746-12.318,3.6-6.9.686-9.646,2.745-7.207,5.32-12.354,8.751-10.125,3.775-8.236,7.036,2.745,5.663,7.034,6.692,6.178,2.917,13.557,0,13.556-5.32,17.847-6.692,8.751-2.574,14.929-4.462,10.467-3.6,15.615-7.379,6.692-5.663,10.639-6.692-.857,3.775,8.237-3.6,13.619-10.3,14.1-13.213S9498.5,2436.857,9498.5,2436.857Z" transform="translate(-9396.126 -2436.098)" fill="url(#linear-gradient)"/>
</svg>
