<svg xmlns="http://www.w3.org/2000/svg" xmlns:xlink="http://www.w3.org/1999/xlink" width="1920" height="701" viewBox="0 0 1920 701">
  <defs>
    <linearGradient id="linear-gradient" x2="1" y2="1" gradientUnits="objectBoundingBox">
      <stop offset="0" stop-color="#89e4ff"/>
      <stop offset="1" stop-color="#016bff"/>
    </linearGradient>
    <clipPath id="clip-path">
      <rect id="Rectangle_216" data-name="Rectangle 216" width="1920" height="701" transform="translate(0 127)" fill="url(#linear-gradient)"/>
    </clipPath>
  </defs>
  <g id="Mask_Group_19" data-name="Mask Group 19" transform="translate(0 -127)" clip-path="url(#clip-path)">
    <path id="Path_438" data-name="Path 438" d="M1108.208,383.5h324.863a100.421,100.421,0,0,1,24.126,2.931,99.808,99.808,0,0,1,74.281,113.708c-.074.527-.15,1.045-.261,1.6l-27.787,157.432-3.69,20.882A540.092,540.092,0,0,1,1357,951.986,540.762,540.762,0,0,1,1089.988,1102.6l-8,2.059a5.812,5.812,0,0,0,1.038,11.424h.009l.469.042a240.586,240.586,0,0,1,48.26,9.975,311.294,311.294,0,0,1,48.89,20.092,362.856,362.856,0,0,1,47.35,29.057,379.016,379.016,0,0,1,43.635,36.875,359.278,359.278,0,0,1,37.742,43.548,317.223,317.223,0,0,1,29.668,49.077,271.553,271.553,0,0,1,19.407,53.462,244.979,244.979,0,0,1,5.171,28.016,233.571,233.571,0,0,1,1.785,28.681,301.411,301.411,0,0,1-4.691,53.024L1345.6,1553.63l-37.89,214.808-.026-.038a99.712,99.712,0,0,1-97.86,80.132l-1.712-.014H887.5c-.869.028-1.7.028-2.582.028s-1.711,0-2.588-.028a99.741,99.741,0,0,1-97.223-99.811,101.568,101.568,0,0,1,1.1-14.859l.007-.037c0-.022.009-.066.014-.1a1.843,1.843,0,0,1,.03-.209l.882-4.946c.01-.042.025-.1.028-.132v-.035l.008-.043,26.724-151.416,18.981-107.434a300.649,300.649,0,0,0,5.028-54.819c0-159.4-124.605-290.293-283.676-298a6.5,6.5,0,0,1-1.536-12.81v-.014l.4-.083A540.9,540.9,0,0,0,973.948,670.016l10.192-57.927,25.346-143.75a.71.71,0,0,0,.015-.086c.006-.043.014-.095.027-.155l.875-4.958.008-.014.009-.046a99.021,99.021,0,0,1,12.449-31.6,99.679,99.679,0,0,1,85.339-47.979Zm390.549,296.364,3.688-20.87,27.791-157.453c.107-.53.181-1.036.253-1.552l0-.016a97.942,97.942,0,0,0,1.419-16.662,98.712,98.712,0,0,0-98.839-98.811H1108.208a98.842,98.842,0,0,0-96.8,78.739.75.75,0,0,1-.044.212l-.859,4.862c-.005.022-.009.048-.014.081a1.666,1.666,0,0,1-.036.189L985.125,612.262,974.932,670.19a537.879,537.879,0,0,1-52,153.157,544.256,544.256,0,0,1-218.547,225.006,538.072,538.072,0,0,1-150.678,56.3v.028l-.413.073a5.5,5.5,0,0,0,.964,10.912h.034a299.629,299.629,0,0,1,279.584,354L814.892,1577.1,788.174,1728.48a1.848,1.848,0,0,1-.052.3l-.007.029-.872,4.9c0,.018-.009.065-.013.1a1.985,1.985,0,0,1-.029.2,100.587,100.587,0,0,0-1.09,14.7,98.306,98.306,0,0,0,28.109,69.034,99.076,99.076,0,0,0,30.585,21.314,98.336,98.336,0,0,0,37.558,8.463c.864.028,1.687.028,2.559.028s1.7,0,2.555-.028h320.642l1.712.014a98.82,98.82,0,0,0,97.1-80.5l.2-1.057,37.486-212.514,15.119-85.694a300.408,300.408,0,0,0,4.675-52.849c0-36.794-8.836-73.71-26.264-109.723a316.208,316.208,0,0,0-29.574-48.921,358.282,358.282,0,0,0-37.637-43.426c-54.794-53.926-124.9-89.708-187.527-95.717l-.463-.042a6.812,6.812,0,0,1-1.209-13.389l8.018-2.063c207.374-47.547,367.916-213.1,409-421.775Z" transform="translate(215.59 -472.023)" fill="#fff"/>
  </g>
</svg>
