<svg xmlns="http://www.w3.org/2000/svg" width="62.456" height="10.346" viewBox="0 0 62.456 10.346">
  <path id="Path_412" data-name="Path 412" d="M1702.551,281.646a4.87,4.87,0,0,1-3.635-1.5,5.123,5.123,0,0,1-1.468-3.671,5.009,5.009,0,0,1,1.468-3.667,4.854,4.854,0,0,1,3.631-1.5,4.92,4.92,0,0,1,3.635,1.5,5.313,5.313,0,0,1,0,7.334A4.829,4.829,0,0,1,1702.551,281.646Zm-43.1,0a5.049,5.049,0,0,1-3.651-1.484,5.171,5.171,0,0,1,3.651-8.858,5.088,5.088,0,0,1,2.039.423,4.122,4.122,0,0,1,1.552,1.109l.1.116-1.081,1.061-.112-.132a3.073,3.073,0,0,0-2.51-1.081,3.469,3.469,0,0,0-2.5,1.021,3.878,3.878,0,0,0,0,5.315,3.658,3.658,0,0,0,5.071,0,2.763,2.763,0,0,0,.734-1.664h-3.467V275.98h4.956l.02.136a5.46,5.46,0,0,1,.072.75,4.493,4.493,0,0,1-1.237,3.312A4.828,4.828,0,0,1,1659.455,281.646Zm57.3-.211h-1.528l-4.68-7.489.04,1.349v6.137h-1.528v-9.915h1.744l.048.076,4.4,7.054-.04-1.345v-5.786h1.544Zm-25.688,0h-1.548v-8.427h-2.685v-1.492h6.915v1.492h-2.685v8.427Zm-5.494,0h-1.544v-9.919h1.544Zm-8.678,0h-1.544v-8.427h-2.685v-1.492h6.915v1.492H1676.9Zm-5.207-.016h-5.921v-9.9h5.921v1.492h-4.373v2.721h3.946v1.476h-3.946v2.721h4.373Zm28.361-2.3a3.417,3.417,0,0,0,2.5,1.037,3.33,3.33,0,0,0,2.5-1.037,3.932,3.932,0,0,0,0-5.283,3.423,3.423,0,0,0-2.5-1.037,3.316,3.316,0,0,0-2.5,1.037,3.937,3.937,0,0,0-.008,5.283Z" transform="translate(-1654.3 -271.3)"/>
</svg>
