<svg xmlns="http://www.w3.org/2000/svg" width="135.593" height="27.256" viewBox="0 0 135.593 27.256">
  <path id="Path_413" data-name="Path 413" d="M1690.008,690.557a6.807,6.807,0,1,0,6.827,6.807A6.7,6.7,0,0,0,1690.008,690.557Zm0,10.917a4.136,4.136,0,1,1,3.839-4.126A3.939,3.939,0,0,1,1690.008,701.474Zm-14.895-10.917a6.807,6.807,0,1,0,6.827,6.807A6.7,6.7,0,0,0,1675.113,690.557Zm0,10.917a4.136,4.136,0,1,1,3.839-4.126A3.939,3.939,0,0,1,1675.113,701.474Zm-17.724-8.838v2.881h6.915a6.071,6.071,0,0,1-1.564,3.627,7.055,7.055,0,0,1-5.335,2.115,7.682,7.682,0,0,1,0-15.362,7.381,7.381,0,0,1,5.207,2.063l2.043-2.043a10.046,10.046,0,0,0-7.234-2.917,10.563,10.563,0,1,0,0,21.123,9.668,9.668,0,0,0,7.378-2.969,9.559,9.559,0,0,0,2.506-6.755,8.913,8.913,0,0,0-.16-1.8h-9.76S1657.389,692.636,1657.389,692.636Zm72.495,2.242a6.326,6.326,0,0,0-5.829-4.337,6.467,6.467,0,0,0-6.416,6.807,6.653,6.653,0,0,0,6.755,6.807,6.756,6.756,0,0,0,5.67-3.02l-2.31-1.548a3.871,3.871,0,0,1-3.344,1.883,3.476,3.476,0,0,1-3.308-2.063l9.1-3.771S1729.884,694.878,1729.884,694.878Zm-9.281,2.274a3.736,3.736,0,0,1,3.555-3.966,2.624,2.624,0,0,1,2.526,1.44Zm-7.394,6.6h2.989v-20h-2.989Zm-4.908-11.679h-.108a4.715,4.715,0,0,0-3.591-1.528,6.807,6.807,0,0,0,0,13.6,4.7,4.7,0,0,0,3.591-1.548h.108v.978c0,2.6-1.389,4-3.627,4a3.774,3.774,0,0,1-3.431-2.418l-2.6,1.085a6.5,6.5,0,0,0,6.025,4.018c3.5,0,6.472-2.063,6.472-7.094V690.948h-2.825v1.121Zm-3.431,9.4a4.139,4.139,0,0,1,0-8.247c2.043,0,3.627,1.76,3.627,4.142A3.779,3.779,0,0,1,1704.871,701.474Zm39.006-17.724h-7.146v20h2.989v-7.573h4.162a6.222,6.222,0,1,0,0-12.425Zm.088,9.632h-4.249v-6.863h4.249a3.432,3.432,0,1,1,0,6.863Zm18.454-2.861a5.628,5.628,0,0,0-5.335,3.056l2.649,1.1a2.841,2.841,0,0,1,2.721-1.476,2.886,2.886,0,0,1,3.148,2.578v.211a6.7,6.7,0,0,0-3.112-.766c-2.861,0-5.762,1.564-5.762,4.5,0,2.685,2.346,4.409,4.96,4.409a4.206,4.206,0,0,0,3.8-1.955h.108v1.548h2.881v-7.661C1768.479,692.5,1765.83,690.521,1762.419,690.521Zm-.375,10.953c-.978,0-2.346-.479-2.346-1.708,0-1.548,1.708-2.135,3.164-2.135a5.187,5.187,0,0,1,2.721.674A3.6,3.6,0,0,1,1762.044,701.474Zm16.946-10.526-3.431,8.674h-.108l-3.555-8.674h-3.216l5.335,12.126-3.04,6.739h3.112l8.207-18.865Zm-26.9,12.8h2.989v-20h-2.989Z" transform="translate(-1646.7 -683)" fill-rule="evenodd"/>
</svg>
