<svg xmlns="http://www.w3.org/2000/svg" width="54.852" height="71.462" viewBox="0 0 54.852 71.462">
  <g id="popcorn" transform="translate(0 0)">
    <path id="Path_597" data-name="Path 597" d="M77.294,19.94a6.554,6.554,0,0,0-8.416-6.283,5.1,5.1,0,0,0-9.917-.473A8.186,8.186,0,0,0,50.71,11.57,6.553,6.553,0,0,0,38.1,13.725a5.1,5.1,0,0,0-6.925,4.761v16.8H77.294V20.606l-.033,0q.033-.328.033-.664Zm0,0" transform="translate(-26.825 -6.453)" fill="#ffde55"/>
    <path id="Path_598" data-name="Path 598" d="M31.176,124H77.294v11.531H31.176Zm0,0" transform="translate(-26.825 -106.693)" fill="#ffcd00"/>
    <path id="Path_599" data-name="Path 599" d="M36.63,73.668a6.555,6.555,0,0,0-6.25,4.579,5.233,5.233,0,0,0-6.787,4.991v5.228H43.183V80.221a6.553,6.553,0,0,0-6.553-6.553Zm0,0" transform="translate(-20.301 -63.386)" fill="#ffeb99"/>
    <path id="Path_600" data-name="Path 600" d="M24.256,124a5.2,5.2,0,0,0-.662,2.546v5.228H43.183V124Zm0,0" transform="translate(-20.301 -106.693)" fill="#ffde55"/>
    <path id="Path_601" data-name="Path 601" d="M228.705,78.97A6.552,6.552,0,0,0,216.7,76.775a5.225,5.225,0,0,0-6.205,5.135v7.476H233.3V84.158a5.228,5.228,0,0,0-4.6-5.189Zm0,0" transform="translate(-181.113 -63.383)" fill="#ffeb99"/>
    <path id="Path_602" data-name="Path 602" d="M210.492,125.221V132.7H233.3v-5.228A5.2,5.2,0,0,0,231.985,124H210.637a5.239,5.239,0,0,0-.145,1.221Zm0,0" transform="translate(-181.113 -106.693)" fill="#ffde55"/>
    <path id="Path_603" data-name="Path 603" d="M71.944,232.605H37.977a1.832,1.832,0,0,1-1.823-1.653L32,188.5H77.92l-4.153,42.452a1.831,1.831,0,0,1-1.823,1.653Zm0,0" transform="translate(-27.534 -162.191)" fill="#ed424b"/>
    <path id="Path_604" data-name="Path 604" d="M32,188.5l4.153,42.452a1.832,1.832,0,0,0,1.823,1.653H41.9L37.583,188.5Zm0,0" transform="translate(-27.534 -162.19)" fill="#bf4c4c"/>
    <path id="Path_605" data-name="Path 605" d="M32.622,194.851H77.3l.622-6.351H32Zm0,0" transform="translate(-27.534 -162.19)" fill="#bf4c4c"/>
    <path id="Path_606" data-name="Path 606" d="M97.8,188.5h9.184l.851,44.105h-7.481Zm0,0" transform="translate(-84.151 -162.19)" fill="#f2ca53"/>
    <path id="Path_607" data-name="Path 607" d="M107.107,194.851l-.122-6.351H97.8l.367,6.351Zm0,0" transform="translate(-84.151 -162.19)" fill="#c49f33"/>
    <path id="Path_608" data-name="Path 608" d="M224.151,188.5h9.184l-2.554,44.105H223.3Zm0,0" transform="translate(-192.134 -162.19)" fill="#f2ca53"/>
    <path id="Path_609" data-name="Path 609" d="M237.462,194.851l.367-6.351h-9.184l-.122,6.351Zm0,0" transform="translate(-196.627 -162.19)" fill="#c49f33"/>
    <path id="Path_610" data-name="Path 610" d="M58.744,150.166H9.016A1.515,1.515,0,0,1,7.5,148.651v-8.136A1.515,1.515,0,0,1,9.016,139H58.744a1.515,1.515,0,0,1,1.515,1.515v8.136A1.515,1.515,0,0,1,58.744,150.166Zm0,0" transform="translate(-6.454 -119.599)" fill="#ed424b"/>
    <path id="Path_611" data-name="Path 611" d="M183.615,167.058a2.495,2.495,0,1,1-2.495-2.5A2.5,2.5,0,0,1,183.615,167.058Zm0,0" transform="translate(-153.694 -141.594)" fill="#222223"/>
    <path id="Path_612" data-name="Path 612" d="M14.479,148.651v-8.136A1.515,1.515,0,0,1,15.994,139H9.015A1.515,1.515,0,0,0,7.5,140.516v8.136a1.515,1.515,0,0,0,1.515,1.515h6.979A1.515,1.515,0,0,1,14.479,148.651Zm0,0" transform="translate(-6.453 -119.6)" fill="#d65b5b"/>
    <path id="Path_613" data-name="Path 613" d="M52.77,18.4a6.248,6.248,0,0,0-1.254-1.946V13.487A7.6,7.6,0,0,0,42.795,5.97a6.145,6.145,0,0,0-11.09-.889,9.246,9.246,0,0,0-7.27-1.225A7.6,7.6,0,0,0,10.4,5.96,6.148,6.148,0,0,0,3.3,12.033v4.351a6.214,6.214,0,0,0-.877,1.976A2.563,2.563,0,0,0,0,20.916v8.136a2.565,2.565,0,0,0,2.562,2.562H3.933l3.645,37.25a2.868,2.868,0,0,0,2.864,2.6H44.41a2.868,2.868,0,0,0,2.864-2.6l.928-9.485a1.047,1.047,0,0,0-2.084-.2l-.928,9.485a.782.782,0,0,1-.781.708H39.757l2.186-37.755h6.872L46.474,55.541a1.047,1.047,0,0,0,.94,1.144q.052,0,.1,0a1.047,1.047,0,0,0,1.041-.945l2.361-24.132H52.29a2.565,2.565,0,0,0,2.562-2.562V20.916A2.564,2.564,0,0,0,52.77,18.4Zm-2.407-.047H30.43a4.176,4.176,0,0,1,4.959-3.933,1.046,1.046,0,0,0,1.084-.478,5.506,5.506,0,0,1,10.091,1.842,1.047,1.047,0,0,0,.9.841,4.209,4.209,0,0,1,2.9,1.727ZM5.4,12.033a4.053,4.053,0,0,1,5.5-3.784,1.047,1.047,0,0,0,1.421-.926,5.506,5.506,0,0,1,10.6-1.809,1.047,1.047,0,0,0,1.325.588,7.139,7.139,0,0,1,7.2,1.406,1.047,1.047,0,0,0,1.708-.491,4.052,4.052,0,0,1,7.88.376,1.047,1.047,0,0,0,1.327.815,5.506,5.506,0,0,1,7.072,5.279V15a6.3,6.3,0,0,0-.975-.325,7.6,7.6,0,0,0-13.365-2.407c-.159-.012-.317-.019-.475-.019a6.28,6.28,0,0,0-6.27,6.1H23.929V16.834a7.6,7.6,0,0,0-14.5-3.191,6.306,6.306,0,0,0-.908-.065,6.213,6.213,0,0,0-3.123.845Zm3.123,3.639a4.179,4.179,0,0,1,1.247.189,1.047,1.047,0,0,0,1.31-.684,5.507,5.507,0,0,1,10.757,1.658v1.519H4.619a4.212,4.212,0,0,1,3.9-2.682Zm1.921,53.7a.781.781,0,0,1-.781-.708L6.037,31.613h6.872L15.1,69.368Zm19.7,0H24.711l-.5-24.66a1.047,1.047,0,0,0-1.046-1.026h-.021a1.046,1.046,0,0,0-1.026,1.068l.5,24.618H17.192L15.006,31.613h6.851l.186,9.23a1.047,1.047,0,0,0,1.046,1.026h.021A1.046,1.046,0,0,0,24.135,40.8l-.185-9.188h6.919Zm7.52,0H32.234l.729-37.755h6.883Zm15.1-40.316a.469.469,0,0,1-.468.468H2.562a.469.469,0,0,1-.468-.468V20.916a.469.469,0,0,1,.468-.468h.712l.04,0,.035,0H52.29a.469.469,0,0,1,.468.468Zm0,0"/>
    <path id="Path_614" data-name="Path 614" d="M174.667,157.063a3.542,3.542,0,1,0,3.542,3.542A3.546,3.546,0,0,0,174.667,157.063Zm0,4.99a1.448,1.448,0,1,1,1.448-1.448A1.45,1.45,0,0,1,174.667,162.053Zm0,0" transform="translate(-147.241 -135.141)"/>
    <g id="Group_186" data-name="Group 186" transform="translate(16.697 25.543)">
      <path id="Path_617" data-name="Path 617" d="M249.643,185.1h-1.585a1.047,1.047,0,1,1,0-2.094h1.585a1.047,1.047,0,1,1,0,2.094Zm0,0" transform="translate(-229.233 -183.004)" fill="#eaeaea"/>
      <path id="Path_618" data-name="Path 618" d="M122.264,185.1h-8.881a1.047,1.047,0,1,1,0-2.094h8.881a1.047,1.047,0,1,1,0,2.094Zm0,0" transform="translate(-119.633 -183.004)" fill="#eaeaea"/>
    </g>
  </g>
</svg>
