<svg xmlns="http://www.w3.org/2000/svg" xmlns:xlink="http://www.w3.org/1999/xlink" width="1920" height="554" viewBox="0 0 1920 554">
  <defs>
    <linearGradient id="linear-gradient" x2="1" y2="1" gradientUnits="objectBoundingBox">
      <stop offset="0" stop-color="#89e4ff"/>
      <stop offset="1" stop-color="#016bff"/>
    </linearGradient>
    <clipPath id="clip-path">
      <rect id="Rectangle_300" data-name="Rectangle 300" width="1920" height="554" transform="translate(0 127)" fill="url(#linear-gradient)"/>
    </clipPath>
  </defs>
  <g id="Mask_Group_28" data-name="Mask Group 28" transform="translate(0 -127)" clip-path="url(#clip-path)">
    <g id="Group_311" data-name="Group 311" transform="translate(198.121 -320.205)">
      <path id="Path_771" data-name="Path 771" d="M1356.165,181.313a62.245,62.245,0,0,0-28.838-7.039H1123.168a62.445,62.445,0,0,0-61.15,49.761.184.184,0,0,1-.015.079l-.545,3.072c-.015.064-.015.111-.03.176l-15.923,90.31-6.4,36.4C1014.782,490.4,909.276,598.608,774.376,626.911v.01a3.771,3.771,0,0,0,.659,7.485h.007C874.477,639.224,953.618,721.368,953.618,822a188.888,188.888,0,0,1-3.164,34.5l-11.932,67.517-16.8,95.156a.715.715,0,0,1-.032.173l-.542,3.072c-.015.064-.015.144-.032.208a63.679,63.679,0,0,0-.689,9.293,62.442,62.442,0,0,0,60.8,62.411c.543.017,1.07.017,1.615.017s1.073,0,1.615-.017h201.5l1.073.01a62.428,62.428,0,0,0,61.333-50.851l.01.007,23.677-134.229,9.5-53.853a188.435,188.435,0,0,0,2.943-33.268c0-96.87-97.943-179.884-176.879-187.455l-.295-.027a3.968,3.968,0,0,1-.708-7.8l5.034-1.291c129.9-29.784,231.411-133.966,257.269-265.313l2.319-13.116L1388.7,248.2c.064-.334.112-.657.158-.991a61.722,61.722,0,0,0,.9-10.524A62.409,62.409,0,0,0,1356.165,181.313Z" transform="translate(242.871 131.572)" fill="#fff" stroke="#fff" stroke-width="1"/>
      <path id="Path_772" data-name="Path 772" d="M1157.584,1094.341H826.639l162.333-920.07h330.942Z" transform="translate(324.695 131.567)" fill="none" stroke="#e1e1e2" stroke-miterlimit="10" stroke-width="0.65"/>
      <circle id="Ellipse_18" data-name="Ellipse 18" cx="339.998" cy="339.998" r="339.998" transform="translate(938.22 85.753)" fill="none" stroke="#fff" stroke-miterlimit="10" stroke-width="0.65"/>
      <circle id="Ellipse_19" data-name="Ellipse 19" cx="340.245" cy="340.245" r="340.245" transform="translate(606.879 85.224)" fill="none" stroke="#fff" stroke-miterlimit="10" stroke-width="0.65"/>
      <circle id="Ellipse_20" data-name="Ellipse 20" cx="187.97" cy="187.97" r="187.97" transform="translate(1151.417 765.749)" fill="none" stroke="#e1e1e2" stroke-miterlimit="10" stroke-width="0.65"/>
      <circle id="Ellipse_21" data-name="Ellipse 21" cx="187.817" cy="187.817" r="187.817" transform="translate(820.855 765.753)" fill="none" stroke="#e1e1e2" stroke-miterlimit="10" stroke-width="0.65"/>
      <line id="Line_43" data-name="Line 43" x2="812.545" transform="translate(909.835 765.749)" fill="none" stroke="#e1e1e2" stroke-miterlimit="10" stroke-width="0.65"/>
      <path id="Path_773" data-name="Path 773" d="M913.487,360.911a4.074,4.074,0,1,1-8.148,0,4.212,4.212,0,0,1,4.063-4.085A4.023,4.023,0,0,1,913.487,360.911Z" transform="translate(440.975 401.286)" fill="none" stroke="#e1e1e2" stroke-miterlimit="10" stroke-width="0.65"/>
      <circle id="Ellipse_22" data-name="Ellipse 22" cx="3.8" cy="3.8" r="3.8" transform="translate(1014.083 758.395)" fill="none" stroke="#e1e1e2" stroke-miterlimit="10" stroke-width="0.65"/>
      <g id="Group_310" data-name="Group 310" transform="translate(1163.303 305.839)">
        <g id="Group_306" data-name="Group 306" transform="translate(0 795.232)">
          <g id="Group_304" data-name="Group 304" transform="translate(204.114)">
            <circle id="Ellipse_23" data-name="Ellipse 23" cx="62.421" cy="62.421" r="62.421" fill="none" stroke="#fff" stroke-miterlimit="10" stroke-width="0.65"/>
          </g>
          <g id="Group_305" data-name="Group 305">
            <circle id="Ellipse_24" data-name="Ellipse 24" cx="62.421" cy="62.421" r="62.421" fill="none" stroke="#fff" stroke-miterlimit="10" stroke-width="0.65"/>
          </g>
        </g>
        <g id="Group_309" data-name="Group 309" transform="translate(140.309)">
          <g id="Group_307" data-name="Group 307" transform="translate(204.172)">
            <circle id="Ellipse_25" data-name="Ellipse 25" cx="62.421" cy="62.421" r="62.421" fill="none" stroke="#fff" stroke-miterlimit="10" stroke-width="0.65"/>
          </g>
          <g id="Group_308" data-name="Group 308">
            <circle id="Ellipse_26" data-name="Ellipse 26" cx="62.421" cy="62.421" r="62.421" fill="none" stroke="#fff" stroke-miterlimit="10" stroke-width="0.65"/>
          </g>
        </g>
      </g>
    </g>
  </g>
</svg>
