<svg xmlns="http://www.w3.org/2000/svg" xmlns:xlink="http://www.w3.org/1999/xlink" width="1920" height="1080" viewBox="0 0 1920 1080">
  <defs>
    <clipPath id="clip-path">
      <rect id="Rectangle_273" data-name="Rectangle 273" width="1920" height="1080" fill="#89e4ff"/>
    </clipPath>
  </defs>
  <g id="Mask_Group_25" data-name="Mask Group 25" clip-path="url(#clip-path)">
    <path id="Path_438" data-name="Path 438" d="M1108.208,384a99.363,99.363,0,0,0-97.3,79.18.258.258,0,0,1-.028.127l-.863,4.889c-.024.1-.024.178-.052.277l-25.335,143.7L974.44,670.1c-38.694,216.918-206.581,389.1-421.237,434.146v.014a6,6,0,0,0,1.051,11.9h.01c158.225,7.667,284.152,138.385,284.152,298.5a300.219,300.219,0,0,1-5.035,54.906L814.4,1577.01l-26.724,151.416a1.567,1.567,0,0,1-.052.282l-.868,4.885c-.023.1-.023.225-.047.328a100.665,100.665,0,0,0-1.1,14.786,99.36,99.36,0,0,0,96.74,99.312c.868.028,1.708.028,2.571.028s1.708,0,2.572-.028h320.626l1.708.014a99.348,99.348,0,0,0,97.6-80.912l.01.014,37.676-213.591,15.119-85.694a299.885,299.885,0,0,0,4.683-52.936c0-154.142-155.846-286.235-281.453-298.285l-.469-.042a6.312,6.312,0,0,1-1.127-12.407l8.005-2.06c206.707-47.394,368.231-213.169,409.379-422.166l3.688-20.872,27.789-157.441c.108-.535.183-1.047.258-1.581a98.132,98.132,0,0,0,1.427-16.747A99.239,99.239,0,0,0,1433.071,384Z" transform="translate(411.757 -648.046)" fill="none" stroke="#fff" stroke-width="1"/>
  </g>
</svg>
