<svg id="UI_Element_Light_Donut_Single_Size-04" data-name="UI Element/Light/Donut/Single/Size-04" xmlns="http://www.w3.org/2000/svg" width="315" height="353" viewBox="0 0 315 353">
  <g id="UI_elements_Donut_Single_Size-04" data-name="UI elements/Donut/Single/Size-04">
    <g id="Mobile-chart-background">
      <g id="Rectangle_Copy_16" data-name="Rectangle Copy 16" fill="#fff">
        <path d="M 303 352.5 L 12 352.5 C 8.928227424621582 352.5 6.040318012237549 351.3037719726562 3.86827278137207 349.1317138671875 C 1.696227312088013 346.9596862792969 0.5 344.07177734375 0.5 341 L 0.5 12 C 0.5 8.928227424621582 1.696227312088013 6.040318012237549 3.86827278137207 3.86827278137207 C 6.040318012237549 1.696227312088013 8.928227424621582 0.5 12 0.5 L 303 0.5 C 306.07177734375 0.5 308.9596862792969 1.696227312088013 311.1317138671875 3.86827278137207 C 313.3037719726562 6.040318012237549 314.5 8.928227424621582 314.5 12 L 314.5 341 C 314.5 344.07177734375 313.3037719726562 346.9596862792969 311.1317138671875 349.1317138671875 C 308.9596862792969 351.3037719726562 306.07177734375 352.5 303 352.5 Z" stroke="none"/>
        <path d="M 12 1 C 9.06182861328125 1 6.299468994140625 2.144195556640625 4.221832275390625 4.221832275390625 C 2.144195556640625 6.299468994140625 1 9.06182861328125 1 12 L 1 341 C 1 343.9381713867188 2.144195556640625 346.7005310058594 4.221832275390625 348.7781677246094 C 6.299468994140625 350.8558044433594 9.06182861328125 352 12 352 L 303 352 C 305.9381713867188 352 308.7005310058594 350.8558044433594 310.7781677246094 348.7781677246094 C 312.8558044433594 346.7005310058594 314 343.9381713867188 314 341 L 314 12 C 314 9.06182861328125 312.8558044433594 6.299468994140625 310.7781677246094 4.221832275390625 C 308.7005310058594 2.144195556640625 305.9381713867188 1 303 1 L 12 1 M 12 0 L 303 0 C 309.6274108886719 0 315 5.372589111328125 315 12 L 315 341 C 315 347.6274108886719 309.6274108886719 353 303 353 L 12 353 C 5.372589111328125 353 0 347.6274108886719 0 341 L 0 12 C 0 5.372589111328125 5.372589111328125 0 12 0 Z" stroke="none" fill="#d9d9d9"/>
      </g>
    </g>
    <g id="Donut_size_05-color-03" data-name="Donut/size 05-color-03" transform="translate(44 103)">
      <g id="Donut_chart" data-name="Donut chart" transform="translate(0 0)">
        <path id="Donut_0" d="M73.829,0A113.352,113.352,0,0,1,182.455,81.756,114.368,114.368,0,0,1,135.41,209.673,112.661,112.661,0,0,1,1.148,201.427L0,200.446,26.175,170.2a72.666,72.666,0,0,0,87.384,5.97A74.369,74.369,0,0,0,144.069,93,73.365,73.365,0,0,0,74.8,40.006L73.829,40Z" transform="translate(40.913)" fill="#016bff"/>
        <path id="Donut_1" d="M39.573,201.033h0l-.749-.659,26.428-30.026.751.661L39.574,201.032Zm-3.607-3.255h0l-.721-.691,27.676-28.879.723.692L35.967,197.777ZM32.5,194.371h0l-.691-.72,28.878-27.677.692.722Zm-3.319-3.548h0l-.66-.751,30.03-26.423.661.751-30.03,26.424Zm-3.164-3.69h0l-.628-.777,31.127-25.121.628.779-31.127,25.12Zm-3.007-3.825v0h0l-.594-.8,32.171-23.77.594.8Zm-2.838-3.94h0l-.558-.828,33.152-22.381.56.829L20.174,179.368Zm-2.665-4.059v0h0l-.524-.85,34.074-20.951.524.852Zm-2.493-4.169h0l-.487-.872,34.934-19.485.488.874L15.017,171.14Zm-2.285-4.216h0l-.45-.892,35.719-18,.451.894-35.72,18Zm-2.108-4.315h0l-.412-.91,36.442-16.491.412.911L10.624,162.61ZM8.672,158.15v0h0l-.374-.926,37.11-14.928.373.928Zm-1.76-4.533h0l-.333-.942L44.288,139.33l.334.943L6.913,153.617Zm-1.562-4.6v0h0l-.294-.954L43.3,136.324l.293.956Zm-1.371-4.668h0l-.252-.967,38.7-10.107.253.967L3.98,144.347Zm-1.166-4.705h0l-.211-.976L41.7,130.2l.212.977L2.813,139.642Zm-.968-4.762v0h0l-.171-.983,39.416-6.8.17.985Zm-.768-4.793h0L.95,129.1l39.669-5.134.128.992L1.077,130.087Zm-.562-4.811h0l-.086-1,39.85-3.457.086,1L.516,125.275Zm-.355-4.789v0h0l-.046-1,39.96-1.787.045,1ZM0,115.627H0l0-1,40-.091,0,1Zm40.017-3.254h0l-39.967-1.6.04-1,39.968,1.6-.04,1Zm.152-3.163-39.864-3.3.082-1,39.864,3.3-.082,1Zm.284-3.146L.769,101.077l.124-.992,39.688,4.986-.125.992Zm.417-3.116L1.43,96.291l.166-.986,39.442,6.656-.165.985Zm.551-3.116L2.3,91.508l.208-.978,39.125,8.325-.208.976Zm.68-3.083L3.367,86.777l.249-.968,38.737,9.972-.249.967Zm.812-3.054L4.634,82.1l.29-.957,38.282,11.6-.29.956Zm.94-3.016L6.1,77.48l.329-.944,37.759,13.2-.329.943ZM44.924,87.7,7.753,72.92l.37-.929L45.293,86.767l-.37.928Zm1.192-2.931L9.6,68.432l.408-.913L46.524,83.852l-.408.912Zm1.315-2.878L11.642,64.021l.446-.895L47.876,80.992l-.446.894Zm1.432-2.812-35-19.367.484-.875,35,19.366-.483.875Zm1.552-2.754L16.27,55.481l.521-.854L50.935,75.467l-.521.852Zm1.666-2.682L18.854,51.366l.556-.831L52.636,72.807l-.556.83Zm1.777-2.606L21.609,47.364l.591-.806L54.448,70.225l-.592.806ZM55.743,68.5,24.532,43.484l.625-.78L56.368,67.722l-.624.78Zm1.99-2.444-30.12-26.32.658-.753,30.12,26.321-.657.752Zm2.057-2.319L30.8,36.183l.688-.725L60.479,63.014l-.688.724Zm2.182-2.262-27.8-28.759.719-.695,27.8,28.759-.718.694ZM64.266,59.3,37.717,29.377l.748-.664L65.014,58.631l-.747.664h0Zm2.386-2.083L41.4,26.188l.776-.632L67.428,56.58l-.775.631Zm2.465-1.976L45.212,23.167l.8-.6,23.907,32.07-.8.6Zm2.551-1.87h0L49.15,20.307l.826-.562L72.5,52.8l-.826.562Zm2.623-1.757L53.2,17.622l.85-.527L75.141,51.082l-.85.527Zm2.7-1.643L57.362,15.111l.871-.491L77.858,49.476l-.871.49Zm2.76-1.525L61.625,12.781l.892-.454L80.637,47.988l-.89.452Zm2.824-1.408h0l-16.582-36.4.91-.415,16.582,36.4-.909.415Zm2.846-1.27L70.387,8.694l.926-.376L86.342,45.387l-.925.376ZM88.353,44.6,74.928,6.919l.942-.336L89.3,44.263l-.941.335Zm2.981-1.036h0l-11.8-38.22.956-.3,11.8,38.221-.955.294Zm3.015-.9L84.2,3.967l.967-.254L95.316,42.4l-.967.254Zm3.056-.776L88.927,2.791l.977-.212L98.382,41.67l-.976.212Zm3.066-.64h0l-6.8-39.418.985-.17,6.8,39.418-.985.17Zm3.111-.512-5.1-39.673L99.47.93l5.1,39.673-.991.128Zm3.132-.378L103.314.5l1-.085,3.4,39.856-1,.085Zm3.137-.243h0L108.152.146l1-.043,1.7,39.965-1,.042ZM114,40h-1V0h1Z" transform="translate(0)" fill="#016bff"/>
      </g>
      <text id="_58_" data-name="58%" transform="translate(44 85)" font-size="44" font-family="NunitoSans-Light, Nunito Sans" font-weight="300"><tspan x="23.294" y="44">58%</tspan></text>
    </g>
    <text id="Additional_text" data-name="Additional text" transform="translate(0 58)" fill="#7c828a" font-size="16" font-family="NunitoSans-Regular, Nunito Sans"><tspan x="94.556" y="16">15 April - 15 May</tspan></text>
    <text id="Chart_title" data-name="Chart title" transform="translate(0 22)" font-size="22" font-family="NunitoSans-Bold, Nunito Sans" font-weight="700"><tspan x="106.372" y="22">Chart title</tspan></text>
  </g>
</svg>
