<svg xmlns="http://www.w3.org/2000/svg" xmlns:xlink="http://www.w3.org/1999/xlink" width="168" height="95" viewBox="0 0 168 95">
  <defs>
    <filter id="Rectangle_Copy_16" x="0" y="0" width="168" height="95" filterUnits="userSpaceOnUse">
      <feOffset dy="3" input="SourceAlpha"/>
      <feGaussianBlur stdDeviation="3" result="blur"/>
      <feFlood flood-opacity="0.161"/>
      <feComposite operator="in" in2="blur"/>
      <feComposite in="SourceGraphic"/>
    </filter>
  </defs>
  <g id="UI_elements_Donut_Single_Size-01" data-name="UI elements/Donut/Single/Size-01" transform="translate(9 6)">
    <g transform="matrix(1, 0, 0, 1, -9, -6)" filter="url(#Rectangle_Copy_16)">
      <g id="Rectangle_Copy_16-2" data-name="Rectangle Copy 16" transform="translate(9 6)" fill="#fff" stroke="#d6d6d6" stroke-miterlimit="10" stroke-width="1">
        <rect width="150" height="77" rx="12" stroke="none"/>
        <rect x="0.5" y="0.5" width="149" height="76" rx="11.5" fill="none"/>
      </g>
    </g>
    <g id="Charts_Donut_size-01" data-name="Charts/Donut/size-01" transform="translate(96 18)">
      <g id="Donut_chart_Copy_2" data-name="Donut chart Copy 2" transform="translate(0)">
        <path id="Donut_1" d="M21,0a3,3,0,0,1,0,6A15.322,15.322,0,0,0,5.972,19.411a3,3,0,0,1-5.944-.821A21.321,21.321,0,0,1,21,0Z" transform="translate(0)" fill="rgba(115,136,169,0.35)"/>
        <path id="Donut_0" d="M21.744,0l.176,0A21.01,21.01,0,1,1,.208,18.05a3,3,0,0,1,5.941.84A15,15,0,1,0,21.658,6a3,3,0,0,1,.085-6Z" transform="translate(0 0)" fill="#016bff"/>
      </g>
    </g>
    <text id="Additional_text" data-name="Additional text" transform="translate(13 42)" fill="#7c828a" font-size="16" font-family="NunitoSans-Regular, Nunito Sans"><tspan x="0" y="16">Category</tspan></text>
    <text id="Numbers" transform="translate(13 15)" font-size="22" font-family="NunitoSans-Bold, Nunito Sans" font-weight="700"><tspan x="0" y="22">354</tspan></text>
  </g>
</svg>
